<svg width="219" height="136" viewBox="0 0 219 136" fill="none" xmlns="http://www.w3.org/2000/svg">
<ellipse cx="118.414" cy="72" rx="63.5861" ry="64" fill="#F3F4F6"/>
<rect x="85.7295" y="16.3738" width="65.6066" height="110.056" rx="8" fill="#FF8142"/>
<rect x="89.8301" y="27.3794" width="57.4057" height="89.4206" rx="4" fill="#FF9C6A"/>
<rect x="89.8301" y="21.8765" width="16.4016" height="2.7514" rx="1" fill="#FFB895"/>
<rect x="104.865" y="119.551" width="27.3361" height="2.7514" rx="1" fill="#FFB895"/>
<rect x="133.567" y="21.8765" width="13.668" height="2.7514" rx="1" fill="#FFB895"/>
<rect x="125.367" y="21.8765" width="6.83402" height="2.7514" rx="1" fill="#FFB895"/>
<g filter="url(#filter0_d_2030_13137)">
<rect x="37" y="45.084" width="103.877" height="53.6523" rx="8" fill="white"/>
</g>
<ellipse cx="60.1763" cy="73.1962" rx="13.668" ry="13.757" fill="#22C55E"/>
<path d="M54.5952 73.1963L58.5817 77.2088L66.5547 69.1838" stroke="white" stroke-width="2" stroke-linecap="round" stroke-linejoin="round"/>
<rect x="80.5" y="57.0466" width="27.3361" height="2.7514" rx="1" fill="#E5E7EB"/>
<rect x="80.5" y="62.5496" width="50.5717" height="2.7514" rx="1" fill="#E5E7EB"/>
<rect x="80.5" y="69.428" width="50.5717" height="19.2598" rx="2" fill="#F3F4F6"/>
<path d="M89.3494 83.1849L89.4691 80.0322L86.6856 81.7232L85.9673 80.5194L88.9004 79.0578L85.9673 77.5961L86.6856 76.3923L89.4691 78.0833L89.3494 74.9307H90.786L90.6663 78.0833L93.4498 76.3923L94.1681 77.5961L91.235 79.0578L94.1681 80.5194L93.4498 81.7232L90.6663 80.0322L90.786 83.1849H89.3494Z" fill="#111827"/>
<path d="M100.284 83.1849L100.404 80.0322L97.6202 81.7232L96.9019 80.5194L99.835 79.0578L96.9019 77.5961L97.6202 76.3923L100.404 78.0833L100.284 74.9307H101.721L101.601 78.0833L104.384 76.3923L105.103 77.5961L102.17 79.0578L105.103 80.5194L104.384 81.7232L101.601 80.0322L101.721 83.1849H100.284Z" fill="#111827"/>
<path d="M111.218 83.1849L111.338 80.0322L108.554 81.7232L107.836 80.5194L110.769 79.0578L107.836 77.5961L108.554 76.3923L111.338 78.0833L111.218 74.9307H112.655L112.535 78.0833L115.318 76.3923L116.037 77.5961L113.104 79.0578L116.037 80.5194L115.318 81.7232L112.535 80.0322L112.655 83.1849H111.218Z" fill="#111827"/>
<path d="M122.153 83.1849L122.272 80.0322L119.489 81.7232L118.771 80.5194L121.704 79.0578L118.771 77.5961L119.489 76.3923L122.272 78.0833L122.153 74.9307H123.589L123.47 78.0833L126.253 76.3923L126.971 77.5961L124.038 79.0578L126.971 80.5194L126.253 81.7232L123.47 80.0322L123.589 83.1849H122.153Z" fill="#111827"/>
<path fill-rule="evenodd" clip-rule="evenodd" d="M162.308 19.5971C164.218 19.0835 166.217 18.8244 168.157 18.5871C168.575 18.5373 168.963 18.815 168.992 19.2062C169.052 19.5977 168.753 19.9557 168.366 20.0055C166.486 20.234 164.546 20.4785 162.726 20.9729C162.338 21.0802 161.92 20.8594 161.801 20.4796C161.682 20.1002 161.92 19.7046 162.308 19.5971Z" fill="#111827"/>
<path fill-rule="evenodd" clip-rule="evenodd" d="M156.52 12.3155C159.593 9.30963 163.055 6.69068 166.068 3.60417C166.337 3.31591 166.814 3.30047 167.113 3.56957C167.411 3.83896 167.441 4.29194 167.143 4.5802C164.129 7.67557 160.667 10.3031 157.594 13.3178C157.296 13.5992 156.818 13.6032 156.52 13.3264C156.251 13.0499 156.222 12.5969 156.52 12.3155Z" fill="#111827"/>
<path fill-rule="evenodd" clip-rule="evenodd" d="M150.76 0.753757C150.671 2.47417 150.581 4.19458 150.492 5.91528C150.492 6.30935 150.134 6.61363 149.716 6.59447C149.298 6.57502 149 6.23958 149 5.84522C149.089 4.12195 149.179 2.39896 149.268 0.675971C149.298 0.2819 149.656 -0.0203736 150.074 0.00107435C150.462 0.0225223 150.79 0.359972 150.76 0.753757Z" fill="#111827"/>
<path fill-rule="evenodd" clip-rule="evenodd" d="M180.313 114.47L173 117.354V117.354L180.75 122.316L180.313 114.47V114.47Z" fill="#CDDAE7"/>
<path fill-rule="evenodd" clip-rule="evenodd" d="M208.734 70.8555V70.8555L208.754 70.7882C208.442 69.3042 209.287 67.8211 210.722 67.3321C212.158 66.8432 213.732 67.5022 214.391 68.8678L214.423 68.9393C214.551 69.3009 214.883 69.5502 215.266 69.5713C215.649 69.5924 216.007 69.3811 216.174 69.0357C216.286 68.8093 216.301 68.547 216.216 68.3091C216.029 67.7787 216.308 67.1972 216.838 67.0103C217.369 66.8234 217.95 67.1019 218.137 67.6324C218.532 69.1012 217.765 70.6332 216.353 71.1974C214.94 71.7616 213.329 71.1795 212.603 69.8427L212.527 69.6751C212.414 69.3548 212.139 69.1188 211.805 69.0562C211.472 68.9935 211.13 69.1136 210.909 69.3712C210.688 69.6289 210.621 69.9849 210.733 70.3052L210.714 70.3725C211.056 71.6272 210.55 72.9591 209.462 73.671C208.374 74.3829 206.951 74.3126 205.938 73.497V73.497C205.588 73.2018 205.31 72.8303 205.126 72.4111L205.053 72.2655C204.941 71.9451 204.666 71.7092 204.332 71.6465C203.998 71.5839 203.656 71.704 203.435 71.9616C203.214 72.2192 203.147 72.5753 203.26 72.8956C203.447 73.4261 203.168 74.0076 202.638 74.1944C202.107 74.3813 201.526 74.1028 201.339 73.5723L201.28 73.3786C200.969 71.8946 201.813 70.4114 203.249 69.9225C204.684 69.4336 206.259 70.0926 206.918 71.4582L206.949 71.5296C207.07 71.8485 207.351 72.0789 207.687 72.134C208.024 72.1892 208.364 72.0607 208.58 71.797C208.796 71.5332 208.855 71.1744 208.734 70.8555V70.8555Z" fill="#CDDAE7"/>
<circle cx="177.691" cy="16.6657" r="2.62" transform="rotate(-1.01 177.691 16.6657)" fill="#CDDAE7"/>
<path fill-rule="evenodd" clip-rule="evenodd" d="M9.6613 68.0999V68.0999V68.0199C9.89434 66.5028 8.9446 65.0545 7.4603 64.6634C5.976 64.2724 4.43597 65.0649 3.8913 66.4999V66.5799C3.79458 66.9523 3.48277 67.2296 3.10161 67.2822C2.72046 67.3348 2.34523 67.1523 2.1513 66.8199C2.02167 66.6034 1.98557 66.3436 2.0513 66.0999C2.1949 65.5477 1.86359 64.9835 1.3113 64.8399C0.759017 64.6963 0.194895 65.0277 0.0513013 65.5799C-0.227839 67.0754 0.65661 68.5431 2.10927 68.995C3.56193 69.4469 5.12286 68.7399 5.7413 67.3499C5.76638 67.2952 5.78646 67.2383 5.8013 67.1799C5.96905 66.7188 6.46043 66.4613 6.9351 66.5858C7.40977 66.7103 7.7115 67.1758 7.6313 67.6599C7.6313 67.6599 7.6313 67.7099 7.6313 67.7399C7.3933 69.0147 8.00137 70.2982 9.13863 70.9214C10.2759 71.5446 11.6849 71.3665 12.6313 70.4799V70.4799C12.9547 70.1595 13.2009 69.7697 13.3513 69.3399C13.3753 69.2916 13.3954 69.2415 13.4113 69.1899C13.4702 68.8344 13.7252 68.5428 14.0697 68.437C14.4142 68.3313 14.7889 68.4295 15.0372 68.6908C15.2854 68.952 15.3645 69.3313 15.2413 69.6699C15.0977 70.2222 15.429 70.7863 15.9813 70.9299C16.5336 71.0735 17.0977 70.7422 17.2413 70.1899C17.2413 70.1233 17.2413 70.0566 17.2413 69.9899C17.4396 68.4851 16.4826 67.0693 15.0124 66.6922C13.5421 66.315 12.0218 67.0955 11.4713 68.5099V68.5899C11.4328 68.9643 11.177 69.2806 10.819 69.3965C10.461 69.5125 10.0683 69.4062 9.81764 69.1255C9.56701 68.8448 9.5057 68.4426 9.6613 68.0999V68.0999Z" fill="#CDDAE7"/>
<rect x="42.7031" y="113.207" width="5.19" height="5.19" transform="rotate(43.99 42.7031 113.207)" fill="#CDDAE7"/>
<path fill-rule="evenodd" clip-rule="evenodd" d="M35.5077 21.5009L33.8916 18.8074L35.4167 16.0531L38.5579 16L40.1816 18.6935L38.6565 21.4478L35.5077 21.5009V21.5009Z" fill="#CDDAE7"/>
<defs>
<filter id="filter0_d_2030_13137" x="23" y="37.084" width="135.877" height="85.6523" filterUnits="userSpaceOnUse" color-interpolation-filters="sRGB">
<feFlood flood-opacity="0" result="BackgroundImageFix"/>
<feColorMatrix in="SourceAlpha" type="matrix" values="0 0 0 0 0 0 0 0 0 0 0 0 0 0 0 0 0 0 127 0" result="hardAlpha"/>
<feOffset dx="2" dy="8"/>
<feGaussianBlur stdDeviation="8"/>
<feComposite in2="hardAlpha" operator="out"/>
<feColorMatrix type="matrix" values="0 0 0 0 0.0666667 0 0 0 0 0.0941177 0 0 0 0 0.152941 0 0 0 0.1 0"/>
<feBlend mode="normal" in2="BackgroundImageFix" result="effect1_dropShadow_2030_13137"/>
<feBlend mode="normal" in="SourceGraphic" in2="effect1_dropShadow_2030_13137" result="shape"/>
</filter>
</defs>
</svg>
