<svg width="152" height="152" viewBox="0 0 152 152" fill="none" xmlns="http://www.w3.org/2000/svg">
<circle cx="76" cy="76" r="75.5" stroke="#E5E7EB" stroke-dasharray="8 8"/>
<circle cx="76" cy="76" r="60" fill="#F9FAFB"/>
<rect x="40" y="40" width="72" height="72" rx="36" fill="#FF8142"/>
<path d="M71.5 85C71.1685 85 70.8505 85.1317 70.6161 85.3661C70.3817 85.6005 70.25 85.9185 70.25 86.25C70.25 86.5815 70.3817 86.8995 70.6161 87.1339C70.8505 87.3683 71.1685 87.5 71.5 87.5H76.5C76.8315 87.5 77.1495 87.3683 77.3839 87.1339C77.6183 86.8995 77.75 86.5815 77.75 86.25C77.75 85.9185 77.6183 85.6005 77.3839 85.3661C77.1495 85.1317 76.8315 85 76.5 85H71.5ZM68.375 57.5C67.2147 57.5 66.1019 57.9609 65.2814 58.7814C64.4609 59.6019 64 60.7147 64 61.875V88.125C64 90.54 65.96 92.5 68.375 92.5H79.625C80.7853 92.5 81.8981 92.0391 82.7186 91.2186C83.5391 90.3981 84 89.2853 84 88.125V61.875C84 60.7147 83.5391 59.6019 82.7186 58.7814C81.8981 57.9609 80.7853 57.5 79.625 57.5H68.375ZM66.5 61.875C66.5 61.3777 66.6975 60.9008 67.0492 60.5492C67.4008 60.1975 67.8777 60 68.375 60H79.625C80.1223 60 80.5992 60.1975 80.9508 60.5492C81.3025 60.9008 81.5 61.3777 81.5 61.875V88.125C81.5 88.6223 81.3025 89.0992 80.9508 89.4508C80.5992 89.8025 80.1223 90 79.625 90H68.375C67.8777 90 67.4008 89.8025 67.0492 89.4508C66.6975 89.0992 66.5 88.6223 66.5 88.125V61.875Z" fill="white"/>
<mask id="path-5-outside-1_2030_13153" maskUnits="userSpaceOnUse" x="74.833" y="78.5835" width="22" height="17" fill="black">
<rect fill="white" x="74.833" y="78.5835" width="22" height="17"/>
<path d="M79.8122 80.5835C79.0221 80.5835 78.2643 80.8974 77.7056 81.4561C77.1469 82.0148 76.833 82.7725 76.833 83.5627V90.4377C76.833 91.2278 77.1469 91.9855 77.7056 92.5443C78.2643 93.103 79.0221 93.4168 79.8122 93.4168H92.1872C92.5784 93.4168 92.9658 93.3398 93.3273 93.1901C93.6887 93.0403 94.0171 92.8209 94.2938 92.5443C94.5704 92.2676 94.7898 91.9392 94.9396 91.5777C95.0893 91.2163 95.1663 90.8289 95.1663 90.4377V83.5627C95.1663 83.1714 95.0893 82.784 94.9396 82.4226C94.7898 82.0611 94.5704 81.7327 94.2938 81.4561C94.0171 81.1794 93.6887 80.96 93.3273 80.8103C92.9658 80.6606 92.5784 80.5835 92.1872 80.5835H79.8122ZM80.7563 85.3685L81.4163 86.0285L82.0763 85.3685C82.1393 85.3009 82.2152 85.2468 82.2995 85.2092C82.3838 85.1716 82.4749 85.1514 82.5672 85.1498C82.6595 85.1482 82.7512 85.1651 82.8368 85.1997C82.9224 85.2343 83.0002 85.2858 83.0655 85.351C83.1307 85.4163 83.1822 85.4941 83.2168 85.5797C83.2514 85.6653 83.2683 85.757 83.2667 85.8493C83.2651 85.9416 83.2449 86.0327 83.2073 86.117C83.1697 86.2013 83.1156 86.2772 83.048 86.3402L82.3889 87.0002L83.0489 87.6583C83.1128 87.7222 83.1636 87.798 83.1982 87.8815C83.2328 87.9649 83.2506 88.0544 83.2507 88.1448C83.2507 88.2351 83.233 88.3246 83.1984 88.4081C83.1639 88.4916 83.1132 88.5674 83.0494 88.6314C82.9855 88.6953 82.9097 88.746 82.8262 88.7806C82.7428 88.8152 82.6533 88.8331 82.563 88.8331C82.4726 88.8332 82.3831 88.8154 82.2996 88.7809C82.2161 88.7463 82.1403 88.6957 82.0763 88.6318L81.4163 87.9718L80.7563 88.6318C80.626 88.7533 80.4536 88.8194 80.2755 88.8162C80.0974 88.8131 79.9275 88.7409 79.8015 88.615C79.6756 88.489 79.6034 88.3191 79.6003 88.141C79.5971 87.9629 79.6632 87.7905 79.7847 87.6602L80.4447 87.0002L79.7847 86.3402C79.6632 86.2098 79.5971 86.0375 79.6003 85.8594C79.6034 85.6812 79.6756 85.5113 79.8015 85.3853C79.9275 85.2594 80.0974 85.1872 80.2755 85.1841C80.4536 85.1809 80.626 85.2471 80.7563 85.3685ZM85.798 85.3685L86.458 86.0285L87.118 85.3685C87.1809 85.3009 87.2568 85.2468 87.3412 85.2092C87.4255 85.1716 87.5166 85.1514 87.6089 85.1498C87.7012 85.1482 87.7929 85.1651 87.8785 85.1997C87.9641 85.2343 88.0418 85.2858 88.1071 85.351C88.1724 85.4163 88.2239 85.4941 88.2585 85.5797C88.293 85.6653 88.31 85.757 88.3084 85.8493C88.3068 85.9416 88.2865 86.0327 88.249 86.117C88.2114 86.2013 88.1572 86.2772 88.0897 86.3402L87.4306 87.0002L88.0906 87.6583C88.2196 87.7873 88.292 87.9622 88.292 88.1446C88.292 88.327 88.2196 88.5019 88.0906 88.6309C87.9616 88.7599 87.7867 88.8323 87.6043 88.8323C87.4219 88.8323 87.247 88.7599 87.118 88.6309L86.458 87.9718L85.798 88.6318C85.7351 88.6994 85.6592 88.7536 85.5748 88.7911C85.4905 88.8287 85.3995 88.8489 85.3072 88.8505C85.2148 88.8522 85.1231 88.8352 85.0375 88.8006C84.9519 88.766 84.8742 88.7146 84.8089 88.6493C84.7436 88.584 84.6921 88.5062 84.6576 88.4206C84.623 88.335 84.606 88.2433 84.6076 88.151C84.6093 88.0587 84.6295 87.9677 84.667 87.8833C84.7046 87.799 84.7588 87.7231 84.8263 87.6602L85.4863 87.0002L84.8263 86.3402C84.7049 86.2098 84.6388 86.0375 84.6419 85.8594C84.6451 85.6812 84.7172 85.5113 84.8432 85.3853C84.9691 85.2594 85.1391 85.1872 85.3172 85.1841C85.4953 85.1809 85.6677 85.2471 85.798 85.3685ZM89.4372 89.0627C89.4372 88.8803 89.5096 88.7055 89.6385 88.5765C89.7675 88.4476 89.9423 88.3752 90.1247 88.3752H91.7288C91.9112 88.3752 92.086 88.4476 92.215 88.5765C92.3439 88.7055 92.4163 88.8803 92.4163 89.0627C92.4163 89.245 92.3439 89.4199 92.215 89.5488C92.086 89.6777 91.9112 89.7502 91.7288 89.7502H90.1247C89.9423 89.7502 89.7675 89.6777 89.6385 89.5488C89.5096 89.4199 89.4372 89.245 89.4372 89.0627Z"/>
</mask>
<path d="M79.8122 80.5835C79.0221 80.5835 78.2643 80.8974 77.7056 81.4561C77.1469 82.0148 76.833 82.7725 76.833 83.5627V90.4377C76.833 91.2278 77.1469 91.9855 77.7056 92.5443C78.2643 93.103 79.0221 93.4168 79.8122 93.4168H92.1872C92.5784 93.4168 92.9658 93.3398 93.3273 93.1901C93.6887 93.0403 94.0171 92.8209 94.2938 92.5443C94.5704 92.2676 94.7898 91.9392 94.9396 91.5777C95.0893 91.2163 95.1663 90.8289 95.1663 90.4377V83.5627C95.1663 83.1714 95.0893 82.784 94.9396 82.4226C94.7898 82.0611 94.5704 81.7327 94.2938 81.4561C94.0171 81.1794 93.6887 80.96 93.3273 80.8103C92.9658 80.6606 92.5784 80.5835 92.1872 80.5835H79.8122ZM80.7563 85.3685L81.4163 86.0285L82.0763 85.3685C82.1393 85.3009 82.2152 85.2468 82.2995 85.2092C82.3838 85.1716 82.4749 85.1514 82.5672 85.1498C82.6595 85.1482 82.7512 85.1651 82.8368 85.1997C82.9224 85.2343 83.0002 85.2858 83.0655 85.351C83.1307 85.4163 83.1822 85.4941 83.2168 85.5797C83.2514 85.6653 83.2683 85.757 83.2667 85.8493C83.2651 85.9416 83.2449 86.0327 83.2073 86.117C83.1697 86.2013 83.1156 86.2772 83.048 86.3402L82.3889 87.0002L83.0489 87.6583C83.1128 87.7222 83.1636 87.798 83.1982 87.8815C83.2328 87.9649 83.2506 88.0544 83.2507 88.1448C83.2507 88.2351 83.233 88.3246 83.1984 88.4081C83.1639 88.4916 83.1132 88.5674 83.0494 88.6314C82.9855 88.6953 82.9097 88.746 82.8262 88.7806C82.7428 88.8152 82.6533 88.8331 82.563 88.8331C82.4726 88.8332 82.3831 88.8154 82.2996 88.7809C82.2161 88.7463 82.1403 88.6957 82.0763 88.6318L81.4163 87.9718L80.7563 88.6318C80.626 88.7533 80.4536 88.8194 80.2755 88.8162C80.0974 88.8131 79.9275 88.7409 79.8015 88.615C79.6756 88.489 79.6034 88.3191 79.6003 88.141C79.5971 87.9629 79.6632 87.7905 79.7847 87.6602L80.4447 87.0002L79.7847 86.3402C79.6632 86.2098 79.5971 86.0375 79.6003 85.8594C79.6034 85.6812 79.6756 85.5113 79.8015 85.3853C79.9275 85.2594 80.0974 85.1872 80.2755 85.1841C80.4536 85.1809 80.626 85.2471 80.7563 85.3685ZM85.798 85.3685L86.458 86.0285L87.118 85.3685C87.1809 85.3009 87.2568 85.2468 87.3412 85.2092C87.4255 85.1716 87.5166 85.1514 87.6089 85.1498C87.7012 85.1482 87.7929 85.1651 87.8785 85.1997C87.9641 85.2343 88.0418 85.2858 88.1071 85.351C88.1724 85.4163 88.2239 85.4941 88.2585 85.5797C88.293 85.6653 88.31 85.757 88.3084 85.8493C88.3068 85.9416 88.2865 86.0327 88.249 86.117C88.2114 86.2013 88.1572 86.2772 88.0897 86.3402L87.4306 87.0002L88.0906 87.6583C88.2196 87.7873 88.292 87.9622 88.292 88.1446C88.292 88.327 88.2196 88.5019 88.0906 88.6309C87.9616 88.7599 87.7867 88.8323 87.6043 88.8323C87.4219 88.8323 87.247 88.7599 87.118 88.6309L86.458 87.9718L85.798 88.6318C85.7351 88.6994 85.6592 88.7536 85.5748 88.7911C85.4905 88.8287 85.3995 88.8489 85.3072 88.8505C85.2148 88.8522 85.1231 88.8352 85.0375 88.8006C84.9519 88.766 84.8742 88.7146 84.8089 88.6493C84.7436 88.584 84.6921 88.5062 84.6576 88.4206C84.623 88.335 84.606 88.2433 84.6076 88.151C84.6093 88.0587 84.6295 87.9677 84.667 87.8833C84.7046 87.799 84.7588 87.7231 84.8263 87.6602L85.4863 87.0002L84.8263 86.3402C84.7049 86.2098 84.6388 86.0375 84.6419 85.8594C84.6451 85.6812 84.7172 85.5113 84.8432 85.3853C84.9691 85.2594 85.1391 85.1872 85.3172 85.1841C85.4953 85.1809 85.6677 85.2471 85.798 85.3685ZM89.4372 89.0627C89.4372 88.8803 89.5096 88.7055 89.6385 88.5765C89.7675 88.4476 89.9423 88.3752 90.1247 88.3752H91.7288C91.9112 88.3752 92.086 88.4476 92.215 88.5765C92.3439 88.7055 92.4163 88.8803 92.4163 89.0627C92.4163 89.245 92.3439 89.4199 92.215 89.5488C92.086 89.6777 91.9112 89.7502 91.7288 89.7502H90.1247C89.9423 89.7502 89.7675 89.6777 89.6385 89.5488C89.5096 89.4199 89.4372 89.245 89.4372 89.0627Z" fill="#FF8142"/>
<path d="M79.8122 80.5835V79.0835V80.5835ZM76.833 83.5627H75.333H76.833ZM95.1663 90.4377H93.6663H95.1663ZM92.1872 80.5835V82.0835V80.5835ZM80.7563 85.3685L81.817 84.3078L81.7983 84.2891L81.7789 84.2711L80.7563 85.3685ZM81.4163 86.0285L80.3557 87.0892L81.4163 88.1498L82.477 87.0892L81.4163 86.0285ZM82.0763 85.3685L83.137 86.4292L83.1557 86.4104L83.1738 86.3911L82.0763 85.3685ZM83.048 86.3402L82.0254 85.2427L82.0057 85.2611L81.9866 85.2802L83.048 86.3402ZM82.3889 87.0002L81.3275 85.9402L80.2669 87.0024L81.3297 88.0623L82.3889 87.0002ZM83.0489 87.6583L84.1091 86.5972L84.1081 86.5962L83.0489 87.6583ZM82.0763 88.6318L81.0157 89.6925L81.0162 89.693L82.0763 88.6318ZM81.4163 87.9718L82.477 86.9112L81.4163 85.8505L80.3557 86.9112L81.4163 87.9718ZM80.7563 88.6318L81.7789 89.7292L81.7983 89.7112L81.817 89.6925L80.7563 88.6318ZM79.8015 88.615L80.8622 87.5543L79.8015 88.615ZM79.7847 87.6602L78.724 86.5995L78.7053 86.6182L78.6873 86.6376L79.7847 87.6602ZM80.4447 87.0002L81.5053 88.0608L82.566 87.0002L81.5053 85.9395L80.4447 87.0002ZM79.7847 86.3402L78.6873 87.3627L78.7053 87.3821L78.724 87.4008L79.7847 86.3402ZM86.458 86.0285L85.3973 87.0892L86.458 88.1498L87.5187 87.0892L86.458 86.0285ZM87.118 85.3685L88.1787 86.4292L88.1974 86.4104L88.2154 86.3911L87.118 85.3685ZM88.0897 86.3402L87.0671 85.2427L87.0473 85.2611L87.0283 85.2802L88.0897 86.3402ZM87.4306 87.0002L86.3692 85.9402L85.3085 87.0024L86.3714 88.0623L87.4306 87.0002ZM88.0906 87.6583L89.1513 86.5977L89.1498 86.5962L88.0906 87.6583ZM88.292 88.1446H89.792H88.292ZM88.0906 88.6309L87.0299 87.5703L88.0906 88.6309ZM87.6043 88.8323V90.3323V88.8323ZM87.118 88.6309L88.1787 87.5703L88.1779 87.5695L87.118 88.6309ZM86.458 87.9718L87.5179 86.9104L86.4573 85.8512L85.3973 86.9112L86.458 87.9718ZM85.798 88.6318L84.7373 87.5712L84.7186 87.5899L84.7006 87.6092L85.798 88.6318ZM84.8263 87.6602L85.8489 88.7576L85.8683 88.7395L85.887 88.7208L84.8263 87.6602ZM85.4863 87.0002L86.547 88.0608L87.6077 87.0002L86.547 85.9395L85.4863 87.0002ZM84.8263 86.3402L83.7289 87.3627L83.747 87.3821L83.7657 87.4008L84.8263 86.3402ZM89.6385 88.5765L88.5779 87.5159L89.6385 88.5765ZM92.215 88.5765L93.2756 87.5159L92.215 88.5765ZM79.8122 79.0835C78.6242 79.0835 77.4849 79.5554 76.6449 80.3954L78.7662 82.5167C79.0436 82.2393 79.4199 82.0835 79.8122 82.0835V79.0835ZM76.6449 80.3954C75.8049 81.2354 75.333 82.3747 75.333 83.5627H78.333C78.333 83.1704 78.4888 82.7941 78.7662 82.5167L76.6449 80.3954ZM75.333 83.5627V90.4377H78.333V83.5627H75.333ZM75.333 90.4377C75.333 91.6256 75.8049 92.7649 76.6449 93.6049L78.7662 91.4836C78.4888 91.2062 78.333 90.83 78.333 90.4377H75.333ZM76.6449 93.6049C77.4849 94.4449 78.6242 94.9168 79.8122 94.9168V91.9168C79.4199 91.9168 79.0436 91.761 78.7662 91.4836L76.6449 93.6049ZM79.8122 94.9168H92.1872V91.9168H79.8122V94.9168ZM92.1872 94.9168C92.7754 94.9168 93.3578 94.801 93.9013 94.5759L92.7532 91.8042C92.5738 91.8786 92.3814 91.9168 92.1872 91.9168V94.9168ZM93.9013 94.5759C94.4447 94.3508 94.9385 94.0208 95.3544 93.6049L93.2331 91.4836C93.0958 91.6209 92.9327 91.7299 92.7532 91.8042L93.9013 94.5759ZM95.3544 93.6049C95.7704 93.189 96.1003 92.6952 96.3254 92.1518L93.5537 91.0037C93.4794 91.1832 93.3705 91.3462 93.2331 91.4836L95.3544 93.6049ZM96.3254 92.1518C96.5505 91.6083 96.6663 91.0259 96.6663 90.4377H93.6663C93.6663 90.6319 93.6281 90.8243 93.5537 91.0037L96.3254 92.1518ZM96.6663 90.4377V83.5627H93.6663V90.4377H96.6663ZM96.6663 83.5627C96.6663 82.9745 96.5505 82.392 96.3254 81.8486L93.5537 82.9966C93.6281 83.1761 93.6663 83.3684 93.6663 83.5627H96.6663ZM96.3254 81.8486C96.1003 81.3051 95.7704 80.8113 95.3544 80.3954L93.2331 82.5167C93.3705 82.6541 93.4794 82.8171 93.5537 82.9966L96.3254 81.8486ZM95.3544 80.3954C94.9385 79.9795 94.4447 79.6496 93.9013 79.4245L92.7532 82.1961C92.9327 82.2704 93.0958 82.3794 93.2331 82.5167L95.3544 80.3954ZM93.9013 79.4245C93.3578 79.1994 92.7754 79.0835 92.1872 79.0835V82.0835C92.3814 82.0835 92.5738 82.1218 92.7532 82.1961L93.9013 79.4245ZM92.1872 79.0835H79.8122V82.0835H92.1872V79.0835ZM79.6957 86.4292L80.3557 87.0892L82.477 84.9678L81.817 84.3078L79.6957 86.4292ZM82.477 87.0892L83.137 86.4292L81.0157 84.3078L80.3557 84.9678L82.477 87.0892ZM83.1738 86.3911C83.0994 86.4709 83.0097 86.5349 82.91 86.5793L81.689 83.8391C81.4207 83.9586 81.1792 84.131 80.9789 84.3459L83.1738 86.3911ZM82.91 86.5793C82.8103 86.6237 82.7028 86.6476 82.5937 86.6496L82.5407 83.65C82.247 83.6552 81.9574 83.7195 81.689 83.8391L82.91 86.5793ZM82.5937 86.6496C82.4846 86.6515 82.3762 86.6314 82.275 86.5905L83.3986 83.8089C83.1262 83.6989 82.8345 83.6448 82.5407 83.65L82.5937 86.6496ZM82.275 86.5905C82.1738 86.5497 82.0819 86.4889 82.0048 86.4117L84.1261 84.2904C83.9184 84.0827 83.671 83.9189 83.3986 83.8089L82.275 86.5905ZM82.0048 86.4117C81.9277 86.3346 81.8668 86.2427 81.826 86.1415L84.6076 85.0179C84.4976 84.7455 84.3338 84.4981 84.1261 84.2904L82.0048 86.4117ZM81.826 86.1415C81.7851 86.0403 81.765 85.9319 81.767 85.8228L84.7665 85.8758C84.7717 85.582 84.7176 85.2903 84.6076 85.0179L81.826 86.1415ZM81.767 85.8228C81.7689 85.7138 81.7928 85.6062 81.8372 85.5065L84.5775 86.7275C84.697 86.4592 84.7613 86.1695 84.7665 85.8758L81.767 85.8228ZM81.8372 85.5065C81.8816 85.4068 81.9456 85.3171 82.0254 85.2427L84.0706 87.4376C84.2855 87.2373 84.4579 86.9958 84.5775 86.7275L81.8372 85.5065ZM81.9866 85.2802L81.3275 85.9402L83.4503 88.0601L84.1094 87.4001L81.9866 85.2802ZM81.3297 88.0623L81.9897 88.7205L84.1081 86.5962L83.4481 85.938L81.3297 88.0623ZM81.9888 88.7195C81.9133 88.6441 81.8535 88.5546 81.8126 88.4562L84.5837 87.3068C84.4736 87.0414 84.3124 86.8003 84.1091 86.5972L81.9888 88.7195ZM81.8126 88.4562C81.7718 88.3577 81.7507 88.2521 81.7507 88.1455L84.7507 88.144C84.7505 87.8567 84.6938 87.5722 84.5837 87.3068L81.8126 88.4562ZM81.7507 88.1455C81.7506 88.0388 81.7716 87.9332 81.8123 87.8347L84.5845 88.9815C84.6944 88.7159 84.7508 88.4314 84.7507 88.144L81.7507 88.1455ZM81.8123 87.8347C81.8531 87.7362 81.9129 87.6466 81.9882 87.5712L84.1105 89.6915C84.3136 89.4883 84.4747 89.247 84.5845 88.9815L81.8123 87.8347ZM81.9882 87.5712C82.0636 87.4958 82.1531 87.4359 82.2516 87.3951L83.4009 90.1662C83.6663 90.0561 83.9075 89.8948 84.1105 89.6915L81.9882 87.5712ZM82.2516 87.3951C82.35 87.3542 82.4556 87.3332 82.5623 87.3331L82.5637 90.3331C82.851 90.333 83.1355 90.2763 83.4009 90.1662L82.2516 87.3951ZM82.5623 87.3331C82.6689 87.3331 82.7745 87.354 82.873 87.3948L81.7263 90.167C81.9918 90.2768 82.2763 90.3333 82.5637 90.3331L82.5623 87.3331ZM82.873 87.3948C82.9715 87.4355 83.0611 87.4953 83.1365 87.5707L81.0162 89.693C81.2195 89.8961 81.4607 90.0571 81.7263 90.167L82.873 87.3948ZM83.137 87.5712L82.477 86.9112L80.3557 89.0325L81.0157 89.6925L83.137 87.5712ZM80.3557 86.9112L79.6957 87.5712L81.817 89.6925L82.477 89.0325L80.3557 86.9112ZM79.7338 87.5344C79.8878 87.3909 80.0915 87.3128 80.302 87.3165L80.2491 90.316C80.8158 90.326 81.3642 90.1156 81.7789 89.7292L79.7338 87.5344ZM80.302 87.3165C80.5125 87.3202 80.7133 87.4055 80.8622 87.5543L78.7409 89.6756C79.1416 90.0764 79.6824 90.306 80.2491 90.316L80.302 87.3165ZM80.8622 87.5543C81.011 87.7032 81.0963 87.904 81.1 88.1145L78.1005 88.1674C78.1105 88.7341 78.3401 89.2749 78.7409 89.6756L80.8622 87.5543ZM81.1 88.1145C81.1037 88.325 81.0256 88.5287 80.8821 88.6827L78.6873 86.6376C78.3009 87.0523 78.0905 87.6007 78.1005 88.1674L81.1 88.1145ZM80.8453 88.7208L81.5053 88.0608L79.384 85.9395L78.724 86.5995L80.8453 88.7208ZM81.5053 85.9395L80.8453 85.2795L78.724 87.4008L79.384 88.0608L81.5053 85.9395ZM80.8821 85.3176C81.0256 85.4716 81.1037 85.6753 81.1 85.8858L78.1005 85.8329C78.0905 86.3996 78.3009 86.9481 78.6873 87.3627L80.8821 85.3176ZM81.1 85.8858C81.0963 86.0963 81.011 86.2971 80.8622 86.446L78.7409 84.3247C78.3401 84.7255 78.1105 85.2662 78.1005 85.8329L81.1 85.8858ZM80.8622 86.446C80.7133 86.5949 80.5125 86.6801 80.302 86.6839L80.2491 83.6843C79.6824 83.6943 79.1416 83.9239 78.7409 84.3247L80.8622 86.446ZM80.302 86.6839C80.0915 86.6876 79.8878 86.6094 79.7338 86.4659L81.7789 84.2711C81.3642 83.8847 80.8158 83.6743 80.2491 83.6843L80.302 86.6839ZM84.7373 86.4292L85.3973 87.0892L87.5187 84.9678L86.8587 84.3078L84.7373 86.4292ZM87.5187 87.0892L88.1787 86.4292L86.0573 84.3078L85.3973 84.9678L87.5187 87.0892ZM88.2154 86.3911C88.141 86.4709 88.0513 86.5349 87.9517 86.5793L86.7307 83.8391C86.4624 83.9586 86.2209 84.131 86.0206 84.3459L88.2154 86.3911ZM87.9517 86.5793C87.852 86.6237 87.7444 86.6476 87.6353 86.6496L87.5824 83.65C87.2887 83.6552 86.999 83.7195 86.7307 83.8391L87.9517 86.5793ZM87.6353 86.6496C87.5262 86.6515 87.4179 86.6314 87.3167 86.5905L88.4403 83.8089C88.1679 83.6989 87.8761 83.6448 87.5824 83.65L87.6353 86.6496ZM87.3167 86.5905C87.2155 86.5497 87.1236 86.4889 87.0465 86.4117L89.1678 84.2904C88.9601 84.0827 88.7126 83.9189 88.4403 83.8089L87.3167 86.5905ZM87.0465 86.4117C86.9693 86.3346 86.9085 86.2427 86.8676 86.1415L89.6493 85.0179C89.5393 84.7455 89.3755 84.4981 89.1678 84.2904L87.0465 86.4117ZM86.8676 86.1415C86.8268 86.0403 86.8067 85.9319 86.8086 85.8228L89.8081 85.8758C89.8133 85.582 89.7593 85.2903 89.6493 85.0179L86.8676 86.1415ZM86.8086 85.8228C86.8105 85.7138 86.8344 85.6062 86.8788 85.5065L89.6191 86.7275C89.7387 86.4592 89.803 86.1695 89.8081 85.8758L86.8086 85.8228ZM86.8788 85.5065C86.9232 85.4068 86.9873 85.3171 87.0671 85.2427L89.1123 87.4376C89.3272 87.2373 89.4996 86.9958 89.6191 86.7275L86.8788 85.5065ZM87.0283 85.2802L86.3692 85.9402L88.492 88.0601L89.1511 87.4001L87.0283 85.2802ZM86.3714 88.0623L87.0314 88.7205L89.1498 86.5962L88.4898 85.938L86.3714 88.0623ZM87.0299 88.719C86.8776 88.5667 86.792 88.36 86.792 88.1446H89.792C89.792 87.5644 89.5615 87.0079 89.1513 86.5977L87.0299 88.719ZM86.792 88.1446C86.792 87.9292 86.8776 87.7226 87.0299 87.5703L89.1513 89.6916C89.5615 89.2813 89.792 88.7248 89.792 88.1446H86.792ZM87.0299 87.5703C87.1823 87.4179 87.3889 87.3323 87.6043 87.3323V90.3323C88.1845 90.3323 88.741 90.1019 89.1513 89.6916L87.0299 87.5703ZM87.6043 87.3323C87.8197 87.3323 88.0263 87.4179 88.1787 87.5703L86.0573 89.6916C86.4676 90.1018 87.0241 90.3323 87.6043 90.3323V87.3323ZM88.1779 87.5695L87.5179 86.9104L85.3981 89.0332L86.0581 89.6923L88.1779 87.5695ZM85.3973 86.9112L84.7373 87.5712L86.8587 89.6925L87.5187 89.0325L85.3973 86.9112ZM84.7006 87.6092C84.775 87.5294 84.8647 87.4654 84.9643 87.421L86.1853 90.1613C86.4537 90.0417 86.6952 89.8693 86.8954 89.6544L84.7006 87.6092ZM84.9643 87.421C85.064 87.3766 85.1716 87.3527 85.2807 87.3508L85.3336 90.3503C85.6273 90.3451 85.917 90.2808 86.1853 90.1613L84.9643 87.421ZM85.2807 87.3508C85.3898 87.3488 85.4982 87.3689 85.5993 87.4098L84.4758 90.1914C84.7481 90.3015 85.0399 90.3555 85.3336 90.3503L85.2807 87.3508ZM85.5993 87.4098C85.7005 87.4506 85.7924 87.5115 85.8695 87.5886L83.7482 89.7099C83.9559 89.9177 84.2034 90.0814 84.4758 90.1914L85.5993 87.4098ZM85.8695 87.5886C85.9467 87.6658 86.0075 87.7577 86.0484 87.8588L83.2667 88.9824C83.3768 89.2548 83.5405 89.5022 83.7482 89.7099L85.8695 87.5886ZM86.0484 87.8588C86.0893 87.96 86.1093 88.0684 86.1074 88.1775L83.1079 88.1246C83.1027 88.4183 83.1567 88.71 83.2667 88.9824L86.0484 87.8588ZM86.1074 88.1775C86.1055 88.2866 86.0816 88.3942 86.0372 88.4938L83.2969 87.2728C83.1773 87.5412 83.113 87.8308 83.1079 88.1246L86.1074 88.1775ZM86.0372 88.4938C85.9928 88.5935 85.9287 88.6832 85.8489 88.7576L83.8038 86.5627C83.5888 86.763 83.4165 87.0045 83.2969 87.2728L86.0372 88.4938ZM85.887 88.7208L86.547 88.0608L84.4257 85.9395L83.7657 86.5995L85.887 88.7208ZM86.547 85.9395L85.887 85.2795L83.7657 87.4008L84.4257 88.0608L86.547 85.9395ZM85.9238 85.3176C86.0673 85.4716 86.1454 85.6753 86.1417 85.8858L83.1422 85.8329C83.1322 86.3996 83.3425 86.9481 83.7289 87.3627L85.9238 85.3176ZM86.1417 85.8858C86.138 86.0963 86.0527 86.2971 85.9038 86.446L83.7825 84.3247C83.3817 84.7255 83.1522 85.2662 83.1422 85.8329L86.1417 85.8858ZM85.9038 86.446C85.755 86.5949 85.5542 86.6801 85.3437 86.6839L85.2907 83.6843C84.724 83.6943 84.1833 83.9239 83.7825 84.3247L85.9038 86.446ZM85.3437 86.6839C85.1332 86.6876 84.9294 86.6094 84.7754 86.4659L86.8206 84.2711C86.4059 83.8847 85.8575 83.6743 85.2907 83.6843L85.3437 86.6839ZM90.9372 89.0627C90.9372 89.2782 90.8516 89.4848 90.6992 89.6372L88.5779 87.5159C88.1676 87.9261 87.9372 88.4825 87.9372 89.0627H90.9372ZM90.6992 89.6372C90.5468 89.7896 90.3402 89.8752 90.1247 89.8752V86.8752C89.5445 86.8752 88.9881 87.1056 88.5779 87.5159L90.6992 89.6372ZM90.1247 89.8752H91.7288V86.8752H90.1247V89.8752ZM91.7288 89.8752C91.5134 89.8752 91.3067 89.7896 91.1543 89.6372L93.2756 87.5159C92.8654 87.1056 92.309 86.8752 91.7288 86.8752V89.8752ZM91.1543 89.6372C91.0019 89.4848 90.9163 89.2781 90.9163 89.0627H93.9163C93.9163 88.4825 93.6859 87.9261 93.2756 87.5159L91.1543 89.6372ZM90.9163 89.0627C90.9163 88.8472 91.0019 88.6405 91.1543 88.4881L93.2756 90.6095C93.6859 90.1992 93.9163 89.6428 93.9163 89.0627H90.9163ZM91.1543 88.4881C91.3067 88.3358 91.5134 88.2502 91.7288 88.2502V91.2502C92.309 91.2502 92.8654 91.0197 93.2756 90.6095L91.1543 88.4881ZM91.7288 88.2502H90.1247V91.2502H91.7288V88.2502ZM90.1247 88.2502C90.3402 88.2502 90.5468 88.3358 90.6992 88.4881L88.5779 90.6095C88.9881 91.0197 89.5445 91.2502 90.1247 91.2502V88.2502ZM90.6992 88.4881C90.8516 88.6405 90.9372 88.8472 90.9372 89.0627H87.9372C87.9372 89.6428 88.1676 90.1992 88.5779 90.6095L90.6992 88.4881Z" fill="#FF8142" mask="url(#path-5-outside-1_2030_13153)"/>
<path d="M79.8127 80.5833C79.0225 80.5833 78.2648 80.8971 77.7061 81.4558C77.1474 82.0145 76.8335 82.7723 76.8335 83.5624V90.4374C76.8335 91.2275 77.1474 91.9853 77.7061 92.544C78.2648 93.1027 79.0225 93.4166 79.8127 93.4166H92.1877C92.5789 93.4166 92.9663 93.3395 93.3277 93.1898C93.6892 93.0401 94.0176 92.8207 94.2943 92.544C94.5709 92.2674 94.7903 91.9389 94.9401 91.5775C95.0898 91.216 95.1668 90.8286 95.1668 90.4374V83.5624C95.1668 83.1712 95.0898 82.7838 94.9401 82.4223C94.7903 82.0609 94.5709 81.7325 94.2943 81.4558C94.0176 81.1792 93.6892 80.9597 93.3277 80.81C92.9663 80.6603 92.5789 80.5833 92.1877 80.5833H79.8127ZM80.7568 85.3683L81.4168 86.0283L82.0768 85.3683C82.1398 85.3007 82.2157 85.2465 82.3 85.209C82.3843 85.1714 82.4754 85.1512 82.5677 85.1495C82.66 85.1479 82.7517 85.1649 82.8373 85.1995C82.9229 85.2341 83.0007 85.2855 83.0659 85.3508C83.1312 85.4161 83.1827 85.4938 83.2173 85.5795C83.2519 85.6651 83.2688 85.7568 83.2672 85.8491C83.2656 85.9414 83.2454 86.0324 83.2078 86.1167C83.1702 86.2011 83.116 86.277 83.0485 86.3399L82.3894 86.9999L83.0494 87.6581C83.1133 87.7219 83.1641 87.7978 83.1987 87.8812C83.2333 87.9647 83.2511 88.0542 83.2512 88.1445C83.2512 88.2349 83.2335 88.3243 83.1989 88.4078C83.1644 88.4913 83.1137 88.5672 83.0499 88.6311C82.986 88.695 82.9102 88.7458 82.8267 88.7804C82.7433 88.815 82.6538 88.8328 82.5634 88.8329C82.4731 88.8329 82.3836 88.8152 82.3001 88.7806C82.2166 88.7461 82.1408 88.6954 82.0768 88.6316L81.4168 87.9716L80.7568 88.6316C80.6265 88.753 80.4541 88.8191 80.276 88.816C80.0979 88.8129 79.928 88.7407 79.802 88.6147C79.676 88.4888 79.6039 88.3188 79.6008 88.1407C79.5976 87.9626 79.6637 87.7902 79.7852 87.6599L80.4452 86.9999L79.7852 86.3399C79.6637 86.2096 79.5976 86.0372 79.6008 85.8591C79.6039 85.681 79.676 85.5111 79.802 85.3851C79.928 85.2591 80.0979 85.187 80.276 85.1838C80.4541 85.1807 80.6265 85.2468 80.7568 85.3683ZM85.7985 85.3683L86.4585 86.0283L87.1185 85.3683C87.1814 85.3007 87.2573 85.2465 87.3417 85.209C87.426 85.1714 87.517 85.1512 87.6094 85.1495C87.7017 85.1479 87.7934 85.1649 87.879 85.1995C87.9646 85.2341 88.0423 85.2855 88.1076 85.3508C88.1729 85.4161 88.2244 85.4938 88.2589 85.5795C88.2935 85.6651 88.3105 85.7568 88.3089 85.8491C88.3072 85.9414 88.287 86.0324 88.2495 86.1167C88.2119 86.2011 88.1577 86.277 88.0902 86.3399L87.4311 86.9999L88.0911 87.6581C88.2201 87.7871 88.2925 87.962 88.2925 88.1444C88.2925 88.3268 88.2201 88.5017 88.0911 88.6307C87.9621 88.7596 87.7872 88.8321 87.6048 88.8321C87.4224 88.8321 87.2475 88.7596 87.1185 88.6307L86.4585 87.9716L85.7985 88.6316C85.7356 88.6991 85.6597 88.7533 85.5753 88.7909C85.491 88.8285 85.4 88.8487 85.3076 88.8503C85.2153 88.8519 85.1236 88.8349 85.038 88.8004C84.9524 88.7658 84.8747 88.7143 84.8094 88.649C84.7441 88.5838 84.6926 88.506 84.6581 88.4204C84.6235 88.3348 84.6065 88.2431 84.6081 88.1508C84.6097 88.0585 84.63 87.9674 84.6675 87.8831C84.7051 87.7988 84.7593 87.7229 84.8268 87.6599L85.4868 86.9999L84.8268 86.3399C84.7054 86.2096 84.6393 86.0372 84.6424 85.8591C84.6456 85.681 84.7177 85.5111 84.8437 85.3851C84.9696 85.2591 85.1396 85.187 85.3177 85.1838C85.4958 85.1807 85.6682 85.2468 85.7985 85.3683ZM89.4377 89.0624C89.4377 88.8801 89.5101 88.7052 89.639 88.5763C89.768 88.4474 89.9428 88.3749 90.1252 88.3749H91.7293C91.9117 88.3749 92.0865 88.4474 92.2155 88.5763C92.3444 88.7052 92.4168 88.8801 92.4168 89.0624C92.4168 89.2448 92.3444 89.4196 92.2155 89.5486C92.0865 89.6775 91.9117 89.7499 91.7293 89.7499H90.1252C89.9428 89.7499 89.768 89.6775 89.639 89.5486C89.5101 89.4196 89.4377 89.2448 89.4377 89.0624Z" fill="white"/>
</svg>
