<svg width="219" height="136" viewBox="0 0 219 136" fill="none" xmlns="http://www.w3.org/2000/svg">
<ellipse cx="109.414" cy="72" rx="63.5861" ry="64" fill="#F3F4F6"/>
<path fill-rule="evenodd" clip-rule="evenodd" d="M153.308 19.5971C155.218 19.0835 157.217 18.8244 159.157 18.5871C159.575 18.5373 159.963 18.815 159.992 19.2062C160.052 19.5977 159.753 19.9557 159.366 20.0055C157.486 20.234 155.546 20.4785 153.726 20.9729C153.338 21.0802 152.92 20.8594 152.801 20.4796C152.682 20.1002 152.92 19.7046 153.308 19.5971Z" fill="#111827"/>
<path fill-rule="evenodd" clip-rule="evenodd" d="M147.519 12.3155C150.593 9.30963 154.054 6.69068 157.068 3.60417C157.337 3.31591 157.814 3.30047 158.112 3.56957C158.411 3.83896 158.44 4.29194 158.142 4.5802C155.128 7.67557 151.667 10.3031 148.594 13.3178C148.295 13.5992 147.818 13.6032 147.519 13.3264C147.251 13.0499 147.221 12.5969 147.519 12.3155Z" fill="#111827"/>
<path fill-rule="evenodd" clip-rule="evenodd" d="M141.761 0.753757C141.671 2.47417 141.582 4.19458 141.492 5.91528C141.492 6.30935 141.134 6.61363 140.716 6.59447C140.299 6.57502 140 6.23958 140 5.84522C140.09 4.12195 140.179 2.39896 140.269 0.675971C140.299 0.2819 140.657 -0.0203736 141.075 0.00107435C141.462 0.0225223 141.791 0.359972 141.761 0.753757Z" fill="#111827"/>
<rect x="76.7295" y="16.3738" width="65.6066" height="110.056" rx="8" fill="#FF8142"/>
<rect x="80.8301" y="27.3794" width="57.4057" height="89.4206" rx="4" fill="#FF9C6A"/>
<rect x="80.8301" y="21.8765" width="16.4016" height="2.7514" rx="1" fill="#FFB895"/>
<rect x="95.8652" y="119.551" width="27.3361" height="2.7514" rx="1" fill="#FFB895"/>
<rect x="124.567" y="21.8765" width="13.668" height="2.7514" rx="1" fill="#FFB895"/>
<rect x="116.367" y="21.8765" width="6.83402" height="2.7514" rx="1" fill="#FFB895"/>
<g filter="url(#filter0_d_2119_14193)">
<rect x="28" y="45" width="103" height="53" rx="8" fill="white"/>
</g>
<rect x="62" y="57" width="27" height="3" rx="1" fill="#E5E7EB"/>
<rect x="62" y="62" width="51" height="3" rx="1" fill="#E5E7EB"/>
<rect x="62" y="80" width="27" height="3" rx="1" fill="#E5E7EB"/>
<rect x="62" y="85" width="51" height="3" rx="1" fill="#E5E7EB"/>
<rect opacity="0.5" x="36" y="54" width="20" height="13" rx="2" fill="#22C55E"/>
<rect opacity="0.5" x="36" y="77" width="20" height="13" rx="2" fill="#22C55E"/>
<line x1="36" y1="71.75" x2="123" y2="71.75" stroke="#F3F4F6" stroke-width="0.5"/>
<path fill-rule="evenodd" clip-rule="evenodd" d="M44.9167 81.5833C44.9167 81.2333 44.6833 81 44.3333 81C43.9833 81 43.75 81.2333 43.75 81.5833C43.75 81.9333 43.9833 82.1667 44.3333 82.1667C44.6833 82.1667 44.9167 81.9333 44.9167 81.5833ZM43.1667 83.3333L42 85.6667H49L46.6667 82.1667L44.9167 84.5L43.1667 83.3333Z" fill="white"/>
<path fill-rule="evenodd" clip-rule="evenodd" d="M44.9167 58.5833C44.9167 58.2333 44.6833 58 44.3333 58C43.9833 58 43.75 58.2333 43.75 58.5833C43.75 58.9333 43.9833 59.1667 44.3333 59.1667C44.6833 59.1667 44.9167 58.9333 44.9167 58.5833ZM43.1667 60.3333L42 62.6667H49L46.6667 59.1667L44.9167 61.5L43.1667 60.3333Z" fill="white"/>
<path fill-rule="evenodd" clip-rule="evenodd" d="M180.313 118.47L173 121.354V121.354L180.751 126.316L180.313 118.47V118.47Z" fill="#CDDAE7"/>
<path fill-rule="evenodd" clip-rule="evenodd" d="M208.734 74.8555V74.8555L208.753 74.7882C208.442 73.3042 209.286 71.8211 210.722 71.3321C212.157 70.8432 213.732 71.5022 214.391 72.8678L214.422 72.9393C214.55 73.3009 214.883 73.5502 215.266 73.5713C215.649 73.5924 216.007 73.3811 216.174 73.0357C216.286 72.8093 216.301 72.547 216.216 72.3091C216.029 71.7787 216.307 71.1972 216.838 71.0103C217.368 70.8234 217.95 71.1019 218.136 71.6324C218.531 73.1012 217.765 74.6332 216.352 75.1974C214.94 75.7616 213.329 75.1795 212.603 73.8427L212.526 73.6751C212.414 73.3548 212.139 73.1188 211.805 73.0562C211.471 72.9935 211.129 73.1136 210.908 73.3712C210.687 73.6289 210.62 73.9849 210.733 74.3052L210.714 74.3725C211.055 75.6272 210.549 76.9591 209.461 77.671C208.373 78.3829 206.95 78.3126 205.937 77.497V77.497C205.587 77.2018 205.31 76.8303 205.125 76.4111L205.053 76.2655C204.94 75.9451 204.665 75.7092 204.331 75.6465C203.998 75.5839 203.656 75.704 203.435 75.9616C203.214 76.2192 203.147 76.5753 203.259 76.8956C203.446 77.4261 203.168 78.0076 202.637 78.1944C202.107 78.3813 201.525 78.1028 201.338 77.5723L201.28 77.3786C200.968 75.8946 201.813 74.4114 203.248 73.9225C204.684 73.4336 206.258 74.0926 206.917 75.4582L206.949 75.5296C207.069 75.8485 207.351 76.0789 207.687 76.134C208.023 76.1892 208.364 76.0607 208.579 75.797C208.795 75.5332 208.854 75.1744 208.734 74.8555V74.8555Z" fill="#CDDAE7"/>
<circle cx="177.691" cy="20.6657" r="2.62" transform="rotate(-1.01 177.691 20.6657)" fill="#CDDAE7"/>
<path fill-rule="evenodd" clip-rule="evenodd" d="M9.6613 72.0999V72.0999V72.0199C9.89434 70.5028 8.9446 69.0545 7.4603 68.6634C5.976 68.2724 4.43597 69.0649 3.8913 70.4999V70.5799C3.79458 70.9523 3.48277 71.2296 3.10161 71.2822C2.72046 71.3348 2.34523 71.1523 2.1513 70.8199C2.02167 70.6034 1.98557 70.3436 2.0513 70.0999C2.1949 69.5477 1.86359 68.9835 1.3113 68.8399C0.759017 68.6963 0.194895 69.0277 0.0513013 69.5799C-0.227839 71.0754 0.65661 72.5431 2.10927 72.995C3.56193 73.4469 5.12286 72.7399 5.7413 71.3499C5.76638 71.2952 5.78646 71.2383 5.8013 71.1799C5.96905 70.7188 6.46043 70.4613 6.9351 70.5858C7.40977 70.7103 7.7115 71.1758 7.6313 71.6599C7.6313 71.6599 7.6313 71.7099 7.6313 71.7399C7.3933 73.0147 8.00137 74.2982 9.13863 74.9214C10.2759 75.5446 11.6849 75.3665 12.6313 74.4799V74.4799C12.9547 74.1595 13.2009 73.7697 13.3513 73.3399C13.3753 73.2916 13.3954 73.2415 13.4113 73.1899C13.4702 72.8344 13.7252 72.5428 14.0697 72.437C14.4142 72.3313 14.7889 72.4295 15.0372 72.6908C15.2854 72.952 15.3645 73.3313 15.2413 73.6699C15.0977 74.2222 15.429 74.7863 15.9813 74.9299C16.5336 75.0735 17.0977 74.7422 17.2413 74.1899C17.2413 74.1233 17.2413 74.0566 17.2413 73.9899C17.4396 72.4851 16.4826 71.0693 15.0124 70.6922C13.5421 70.315 12.0218 71.0955 11.4713 72.5099V72.5899C11.4328 72.9643 11.177 73.2806 10.819 73.3965C10.461 73.5125 10.0683 73.4062 9.81764 73.1255C9.56701 72.8448 9.5057 72.4426 9.6613 72.0999V72.0999Z" fill="#CDDAE7"/>
<rect x="42.7031" y="117.207" width="5.19" height="5.19" transform="rotate(43.99 42.7031 117.207)" fill="#CDDAE7"/>
<path fill-rule="evenodd" clip-rule="evenodd" d="M35.5077 25.5009L33.8916 22.8074L35.4167 20.0531L38.5579 20L40.1816 22.6935L38.6565 25.4478L35.5077 25.5009V25.5009Z" fill="#CDDAE7"/>
<defs>
<filter id="filter0_d_2119_14193" x="14" y="37" width="135" height="85" filterUnits="userSpaceOnUse" color-interpolation-filters="sRGB">
<feFlood flood-opacity="0" result="BackgroundImageFix"/>
<feColorMatrix in="SourceAlpha" type="matrix" values="0 0 0 0 0 0 0 0 0 0 0 0 0 0 0 0 0 0 127 0" result="hardAlpha"/>
<feOffset dx="2" dy="8"/>
<feGaussianBlur stdDeviation="8"/>
<feComposite in2="hardAlpha" operator="out"/>
<feColorMatrix type="matrix" values="0 0 0 0 0.0666667 0 0 0 0 0.0941177 0 0 0 0 0.152941 0 0 0 0.1 0"/>
<feBlend mode="normal" in2="BackgroundImageFix" result="effect1_dropShadow_2119_14193"/>
<feBlend mode="normal" in="SourceGraphic" in2="effect1_dropShadow_2119_14193" result="shape"/>
</filter>
</defs>
</svg>
