<svg width="152" height="152" viewBox="0 0 152 152" fill="none" xmlns="http://www.w3.org/2000/svg">
<circle cx="76" cy="76" r="75.5" stroke="#E5E7EB" stroke-dasharray="8 8"/>
<circle cx="76" cy="76" r="60" fill="#F9FAFB"/>
<rect x="40" y="40" width="72" height="72" rx="36" fill="#FF8142"/>
<path d="M78.9165 59.3334C79.9111 59.3334 80.8649 59.7285 81.5682 60.4317C82.2714 61.135 82.6665 62.0888 82.6665 63.0834V74.0617C81.6289 74.5557 80.7595 75.344 80.1665 76.3284V63.0834C80.1665 62.7519 80.0348 62.4339 79.8004 62.1995C79.566 61.9651 79.248 61.8334 78.9165 61.8334H66.4165C66.085 61.8334 65.767 61.9651 65.5326 62.1995C65.2982 62.4339 65.1665 62.7519 65.1665 63.0834V88.9167C65.1665 89.6067 65.7265 90.1667 66.4165 90.1667H75.9998V91.8334C75.9998 92.1184 76.0282 92.3967 76.0832 92.6667H66.4165C65.924 92.6667 65.4364 92.5697 64.9814 92.3813C64.5265 92.1928 64.1131 91.9166 63.7649 91.5684C63.0616 90.8651 62.6665 89.9113 62.6665 88.9167V63.0834C62.6665 62.0888 63.0616 61.135 63.7649 60.4317C64.4681 59.7285 65.4219 59.3334 66.4165 59.3334H78.9165ZM80.9998 79.3334C80.999 78.786 81.1061 78.2437 81.3152 77.7378C81.5243 77.2319 81.8312 76.7722 82.2183 76.3851C82.6054 75.9981 83.065 75.6912 83.571 75.4821C84.0769 75.273 84.6191 75.1658 85.1665 75.1667C86.2716 75.1667 87.3314 75.6057 88.1128 76.3871C88.8942 77.1685 89.3332 78.2283 89.3332 79.3334V81H90.1665C90.8295 81 91.4654 81.2634 91.9343 81.7323C92.4031 82.2011 92.6665 82.837 92.6665 83.5V91.8334C92.6665 92.4964 92.4031 93.1323 91.9343 93.6011C91.4654 94.07 90.8295 94.3334 90.1665 94.3334H80.1665C79.5035 94.3334 78.8676 94.07 78.3987 93.6011C77.9299 93.1323 77.6665 92.4964 77.6665 91.8334V83.5C77.6665 82.837 77.9299 82.2011 78.3987 81.7323C78.8676 81.2634 79.5035 81 80.1665 81H80.9998V79.3334ZM83.4998 79.3334V81H86.8332V79.3334C86.8332 78.8913 86.6576 78.4674 86.345 78.1549C86.0325 77.8423 85.6085 77.6667 85.1665 77.6667C84.7245 77.6667 84.3006 77.8423 83.988 78.1549C83.6754 78.4674 83.4998 78.8913 83.4998 79.3334ZM86.8332 87.6667C86.8332 87.2247 86.6576 86.8008 86.345 86.4882C86.0325 86.1756 85.6085 86 85.1665 86C84.7245 86 84.3006 86.1756 83.988 86.4882C83.6754 86.8008 83.4998 87.2247 83.4998 87.6667C83.4998 88.1087 83.6754 88.5327 83.988 88.8452C84.3006 89.1578 84.7245 89.3334 85.1665 89.3334C85.6085 89.3334 86.0325 89.1578 86.345 88.8452C86.6576 88.5327 86.8332 88.1087 86.8332 87.6667ZM75.9998 86.415V86.4167C75.9998 86.7479 75.8684 87.0656 75.6343 87.3C75.4002 87.5344 75.0827 87.6663 74.7515 87.6667L70.5848 87.6734C70.2533 87.6738 69.9352 87.5425 69.7005 87.3084C69.4657 87.0743 69.3336 86.7566 69.3332 86.425C69.3327 86.0935 69.464 85.7754 69.6981 85.5407C69.9322 85.3059 70.25 85.1738 70.5815 85.1734L74.7482 85.1667C74.9123 85.1665 75.0749 85.1986 75.2267 85.2612C75.3784 85.3238 75.5163 85.4157 75.6325 85.5316C75.7488 85.6476 75.841 85.7852 75.904 85.9368C75.9671 86.0884 75.9996 86.2509 75.9998 86.415Z" fill="white"/>
</svg>
