<svg width="16" height="16" viewBox="0 0 16 16" fill="none" xmlns="http://www.w3.org/2000/svg">
<path d="M14.1088 1.55967C14.1088 2.42105 13.3964 3.11933 12.5176 3.11933C11.6388 3.11933 10.9264 2.42105 10.9264 1.55967C10.9264 0.698286 11.6388 0 12.5176 0C13.3964 0 14.1088 0.698286 14.1088 1.55967Z" fill="#111827"/>
<path d="M6.15497 7.45748C5.68502 6.87001 5.78992 6.02035 6.38928 5.55972L10.6471 2.28734L12.6108 4.74206L7.26771 8.84849L6.15497 7.45748Z" fill="#111827"/>
<path d="M8.62996 7.48635L11.1385 10.6057C11.6259 11.0834 11.43 11.8968 10.7761 12.1105L10.6081 12.1653L7.31504 8.68901L8.62996 7.48635Z" fill="#111827"/>
<path d="M4.51468 11.0275C4.61262 10.9714 4.72293 10.9394 4.83622 10.9341L9.96689 10.695L11.02 11.2761C11.2914 11.7553 10.936 12.3436 10.3769 12.3408L4.86605 12.3132C4.14968 12.3096 3.89607 11.3816 4.51468 11.0275Z" fill="#111827"/>
<path d="M11.0323 4.8869L12.5173 4.79323V6.96646L11.5627 7.48635L11.0323 4.8869Z" fill="#111827"/>
<path d="M11.6439 6.67378L12.7296 6.96653L15.558 6.96652C15.7633 6.96652 15.9396 7.10985 15.9776 7.30769L15.9938 7.39237C16.0348 7.60594 15.8676 7.80343 15.6459 7.80346L14.8513 8.00624H14.3209L12.7296 8.0648H12.4272C11.6986 8.0648 11.2556 7.27801 11.6439 6.67378Z" fill="#111827"/>
<path d="M7.42568 12.8807H9.0169L7.59813 15.662C7.49244 15.8691 7.27641 16 7.04009 16C6.67612 16 6.38942 15.6959 6.41812 15.3402L6.46457 14.7648L7.42568 12.8807Z" fill="#111827"/>
<path d="M8.48648 0.727793L10.6409 2.30831L9.92429 3.70788L7.80019 1.79653L8.48648 0.727793Z" fill="#111827"/>
<path d="M4.20228 0.954434C4.29917 0.814066 4.45875 0.727624 4.63156 0.721897L8.08362 0.607475C8.29164 0.60058 8.48454 0.713577 8.57689 0.896411L9.01688 1.76757H4.77364L4.74487 1.77261C4.27449 1.855 3.93451 1.34235 4.20228 0.954434Z" fill="#111827"/>
<path d="M0 3.74305H6.57702L5.26607 4.99078H0V3.74305Z" fill="#111827"/>
<path d="M0 9.46182H6.46033L5.46792 8.21409H0V9.46182Z" fill="#111827"/>
<path d="M0 5.92668H4.77364C4.39986 6.36757 4.46601 6.75746 4.77364 7.17441H0V5.92668Z" fill="#111827"/>
</svg>
