<svg width="68" height="68" viewBox="0 0 68 68" fill="none" xmlns="http://www.w3.org/2000/svg">
<path d="M33.9998 31.1667C40.2591 31.1667 45.3332 26.0926 45.3332 19.8333C45.3332 13.5741 40.2591 8.5 33.9998 8.5C27.7406 8.5 22.6665 13.5741 22.6665 19.8333C22.6665 26.0926 27.7406 31.1667 33.9998 31.1667Z" fill="#E5E7EB" stroke="#E5E7EB" stroke-width="1.5" stroke-linecap="round" stroke-linejoin="round"/>
<path d="M17 59.5V53.8333C17 50.8275 18.194 47.9449 20.3195 45.8195C22.4449 43.694 25.3275 42.5 28.3333 42.5H39.6667C42.6725 42.5 45.5551 43.694 47.6805 45.8195C49.806 47.9449 51 50.8275 51 53.8333V59.5" fill="#E5E7EB"/>
<path d="M17 59.5V53.8333C17 50.8275 18.194 47.9449 20.3195 45.8195C22.4449 43.694 25.3275 42.5 28.3333 42.5H39.6667C42.6725 42.5 45.5551 43.694 47.6805 45.8195C49.806 47.9449 51 50.8275 51 53.8333V59.5H17Z" stroke="#E5E7EB" stroke-width="1.5" stroke-linecap="round" stroke-linejoin="round"/>
</svg>
