<svg width="25" height="25" viewBox="0 0 25 25" fill="none" xmlns="http://www.w3.org/2000/svg">
<path d="M17.1953 2.5H7.55531C5.42531 2.5 3.69531 4.24 3.69531 6.36V20.45C3.69531 22.25 4.98531 23.01 6.56531 22.14L11.4453 19.43C11.9653 19.14 12.8053 19.14 13.3153 19.43L18.1953 22.14C19.7753 23.02 21.0653 22.26 21.0653 20.45V6.36C21.0553 4.24 19.3253 2.5 17.1953 2.5ZM15.3853 10.25C14.4153 10.6 13.3953 10.78 12.3753 10.78C11.3553 10.78 10.3353 10.6 9.36531 10.25C8.97531 10.11 8.77531 9.68 8.91531 9.29C9.06531 8.9 9.49531 8.7 9.88531 8.84C11.4953 9.42 13.2653 9.42 14.8753 8.84C15.2653 8.7 15.6953 8.9 15.8353 9.29C15.9753 9.68 15.7753 10.11 15.3853 10.25Z" fill="#FF8142"/>
</svg>
