<svg width="25" height="25" viewBox="0 0 25 25" fill="none" xmlns="http://www.w3.org/2000/svg">
<path d="M9.625 9.5498C11.405 10.1998 13.345 10.1998 15.125 9.5498" stroke="#9CA3AF" stroke-width="1.5" stroke-linecap="round" stroke-linejoin="round"/>
<path d="M17.1948 2.5H7.55482C5.42482 2.5 3.69482 4.24 3.69482 6.36V20.45C3.69482 22.25 4.98482 23.01 6.56482 22.14L11.4448 19.43C11.9648 19.14 12.8048 19.14 13.3148 19.43L18.1948 22.14C19.7748 23.02 21.0648 22.26 21.0648 20.45V6.36C21.0548 4.24 19.3248 2.5 17.1948 2.5Z" stroke="#9CA3AF" stroke-width="1.5" stroke-linecap="round" stroke-linejoin="round"/>
<path d="M17.1948 2.5H7.55482C5.42482 2.5 3.69482 4.24 3.69482 6.36V20.45C3.69482 22.25 4.98482 23.01 6.56482 22.14L11.4448 19.43C11.9648 19.14 12.8048 19.14 13.3148 19.43L18.1948 22.14C19.7748 23.02 21.0648 22.26 21.0648 20.45V6.36C21.0548 4.24 19.3248 2.5 17.1948 2.5Z" stroke="#9CA3AF" stroke-width="1.5" stroke-linecap="round" stroke-linejoin="round"/>
</svg>
