<svg width="64" height="64" viewBox="0 0 64 64" fill="none" xmlns="http://www.w3.org/2000/svg">
<ellipse cx="31.7501" cy="32" rx="31.69" ry="32" fill="#D1D5DB"/>
<path d="M22.3448 30.9089H42.2764V40.9999C42.2764 42.6568 40.9332 43.9999 39.2764 43.9999H25.3448C23.688 43.9999 22.3448 42.6568 22.3448 40.9999V30.9089Z" fill="#F3F4F6"/>
<path fill-rule="evenodd" clip-rule="evenodd" d="M40.7764 32.4089H23.8448V40.9999C23.8448 41.8283 24.5164 42.4999 25.3448 42.4999H39.2764C40.1048 42.4999 40.7764 41.8283 40.7764 40.9999V32.4089ZM22.3448 30.9089V40.9999C22.3448 42.6568 23.688 43.9999 25.3448 43.9999H39.2764C40.9332 43.9999 42.2764 42.6568 42.2764 40.9999V30.9089H22.3448Z" fill="#F3F4F6"/>
<path d="M27.0346 30.909C27.0346 32.7165 25.4599 34.1817 23.5173 34.1817C21.5748 34.1817 20 32.7165 20 30.909C20 29.1015 21.5748 27.6362 23.5173 27.6362C25.4599 27.6362 27.0346 29.1015 27.0346 30.909Z" fill="#D1D5DB"/>
<path fill-rule="evenodd" clip-rule="evenodd" d="M23.5173 32.6817C24.7351 32.6817 25.5346 31.7881 25.5346 30.909C25.5346 30.0299 24.7351 29.1362 23.5173 29.1362C22.2995 29.1362 21.5 30.0299 21.5 30.909C21.5 31.7881 22.2995 32.6817 23.5173 32.6817ZM23.5173 34.1817C25.4599 34.1817 27.0346 32.7165 27.0346 30.909C27.0346 29.1015 25.4599 27.6362 23.5173 27.6362C21.5748 27.6362 20 29.1015 20 30.909C20 32.7165 21.5748 34.1817 23.5173 34.1817Z" fill="#F3F4F6"/>
<path d="M44.6213 30.909C44.6213 32.7165 43.0466 34.1817 41.104 34.1817C39.1614 34.1817 37.5867 32.7165 37.5867 30.909C37.5867 29.1015 39.1614 27.6362 41.104 27.6362C43.0466 27.6362 44.6213 29.1015 44.6213 30.909Z" fill="#D1D5DB"/>
<path fill-rule="evenodd" clip-rule="evenodd" d="M41.104 32.6817C42.3218 32.6817 43.1213 31.7881 43.1213 30.909C43.1213 30.0299 42.3218 29.1362 41.104 29.1362C39.8862 29.1362 39.0867 30.0299 39.0867 30.909C39.0867 31.7881 39.8862 32.6817 41.104 32.6817ZM41.104 34.1817C43.0466 34.1817 44.6213 32.7165 44.6213 30.909C44.6213 29.1015 43.0466 27.6362 41.104 27.6362C39.1614 27.6362 37.5867 29.1015 37.5867 30.909C37.5867 32.7165 39.1614 34.1817 41.104 34.1817Z" fill="#F3F4F6"/>
<path d="M32.8968 30.909C32.8968 32.7165 31.3221 34.1817 29.3795 34.1817C27.4369 34.1817 25.8622 32.7165 25.8622 30.909C25.8622 29.1015 27.4369 27.6362 29.3795 27.6362C31.3221 27.6362 32.8968 29.1015 32.8968 30.909Z" fill="#D1D5DB"/>
<path fill-rule="evenodd" clip-rule="evenodd" d="M29.3795 32.6817C30.5973 32.6817 31.3968 31.7881 31.3968 30.909C31.3968 30.0299 30.5973 29.1362 29.3795 29.1362C28.1617 29.1362 27.3622 30.0299 27.3622 30.909C27.3622 31.7881 28.1617 32.6817 29.3795 32.6817ZM29.3795 34.1817C31.3221 34.1817 32.8968 32.7165 32.8968 30.909C32.8968 29.1015 31.3221 27.6362 29.3795 27.6362C27.4369 27.6362 25.8622 29.1015 25.8622 30.909C25.8622 32.7165 27.4369 34.1817 29.3795 34.1817Z" fill="#F3F4F6"/>
<path d="M38.7591 30.909C38.7591 32.7165 37.1844 34.1817 35.2418 34.1817C33.2992 34.1817 31.7245 32.7165 31.7245 30.909C31.7245 29.1015 33.2992 27.6362 35.2418 27.6362C37.1844 27.6362 38.7591 29.1015 38.7591 30.909Z" fill="#D1D5DB"/>
<path fill-rule="evenodd" clip-rule="evenodd" d="M35.2418 32.6817C36.4596 32.6817 37.2591 31.7881 37.2591 30.909C37.2591 30.0299 36.4596 29.1362 35.2418 29.1362C34.024 29.1362 33.2245 30.0299 33.2245 30.909C33.2245 31.7881 34.024 32.6817 35.2418 32.6817ZM35.2418 34.1817C37.1844 34.1817 38.7591 32.7165 38.7591 30.909C38.7591 29.1015 37.1844 27.6362 35.2418 27.6362C33.2992 27.6362 31.7245 29.1015 31.7245 30.909C31.7245 32.7165 33.2992 34.1817 35.2418 34.1817Z" fill="#F3F4F6"/>
<path d="M21.7587 24.3635H42.2764L44.6213 30.909H20L21.7587 24.3635Z" fill="#D1D5DB"/>
<path fill-rule="evenodd" clip-rule="evenodd" d="M22.9088 25.8635L21.9562 29.409H42.4906L41.2204 25.8635H22.9088ZM42.2764 24.3635H21.7587L20 30.909H44.6213L42.2764 24.3635Z" fill="#F3F4F6"/>
<path d="M21.6415 22C21.6415 20.8954 22.5369 20 23.6415 20H40.5109C41.6155 20 42.5109 20.8954 42.5109 22V25.4546H21.6415V22Z" fill="#D1D5DB"/>
<path fill-rule="evenodd" clip-rule="evenodd" d="M40.5109 22.5H23.6415C23.3653 22.5 23.1415 22.7239 23.1415 23V23.9773H41.0109V23C41.0109 22.7239 40.7871 22.5 40.5109 22.5ZM23.6415 21C22.5369 21 21.6415 21.8954 21.6415 23V25.5H42.5109V23C42.5109 21.8954 41.6155 21 40.5109 21H23.6415Z" fill="#F3F4F6"/>
<path fill-rule="evenodd" clip-rule="evenodd" d="M25.6997 29.7881L26.8721 24.3335L28.3468 24.6079L27.1744 30.0625L25.6997 29.7881Z" fill="#F3F4F6"/>
<path fill-rule="evenodd" clip-rule="evenodd" d="M31.5607 29.8181V24.3635H33.0607V29.8181H31.5607Z" fill="#F3F4F6"/>
<path fill-rule="evenodd" clip-rule="evenodd" d="M36.143 24.7053L37.6205 24.4447L38.7929 29.8992L38.6902 29.9183L38.7958 30.4585L37.3154 30.7053L36.143 24.7053Z" fill="#F3F4F6"/>
<path d="M28.0071 39.7388C28.5146 39.7388 28.9227 39.5635 29.2418 39.2082L28.8337 38.7603C28.6244 38.9696 28.3681 39.1157 28.0332 39.1157C27.4211 39.1157 27.0234 38.6434 27.0234 37.8597C27.0234 37.0856 27.4629 36.6183 28.0489 36.6183C28.3419 36.6183 28.5669 36.7448 28.7605 36.9201L29.1686 36.4625C28.9174 36.2142 28.5355 36 28.0332 36C27.0548 36 26.2334 36.6962 26.2334 37.884C26.2334 39.0865 27.0234 39.7388 28.0071 39.7388Z" fill="#D1D5DB"/>
<path d="M31.5994 38.7457L31.8715 39.6706H32.6824L31.4372 36.0682H30.5268L29.2868 39.6706H30.0716L30.3437 38.7457H31.5994ZM31.432 38.1858H30.5111L30.6262 37.7915C30.7466 37.4167 30.8564 37.0077 30.9559 36.6134H30.9768C31.0971 37.0029 31.1965 37.4167 31.3169 37.7915L31.432 38.1858Z" fill="#D1D5DB"/>
<path d="M33.0539 36.0682V39.6706H33.8282V38.2102H35.2043V37.6065H33.8282V36.6669H35.4397V36.0682H33.0539Z" fill="#D1D5DB"/>
<path d="M36.0327 36.0682V39.6706H38.4656V39.067H36.807V38.1031H38.1674V37.4994H36.807V36.6669H38.408V36.0682H36.0327Z" fill="#D1D5DB"/>
</svg>
