<svg width="26" height="24" viewBox="0 0 26 24" fill="none" xmlns="http://www.w3.org/2000/svg">
<path d="M2.86755 10.9089H22.7991V20.9999C22.7991 22.6568 21.4559 23.9999 19.7991 23.9999H5.86755C4.2107 23.9999 2.86755 22.6568 2.86755 20.9999V10.9089Z" fill="#FF8142"/>
<path fill-rule="evenodd" clip-rule="evenodd" d="M21.2991 12.4089H4.36755V20.9999C4.36755 21.8283 5.03913 22.4999 5.86755 22.4999H19.7991C20.6275 22.4999 21.2991 21.8283 21.2991 20.9999V12.4089ZM2.86755 10.9089V20.9999C2.86755 22.6568 4.2107 23.9999 5.86755 23.9999H19.7991C21.4559 23.9999 22.7991 22.6568 22.7991 20.9999V10.9089H2.86755Z" fill="#FF8142"/>
<path d="M7.55735 10.9091C7.55735 12.7166 5.98259 14.1818 4.04003 14.1818C2.09746 14.1818 0.522705 12.7166 0.522705 10.9091C0.522705 9.10161 2.09746 7.63635 4.04003 7.63635C5.98259 7.63635 7.55735 9.10161 7.55735 10.9091Z" fill="#F9FAFB"/>
<path fill-rule="evenodd" clip-rule="evenodd" d="M4.04003 12.6818C5.25781 12.6818 6.05735 11.7882 6.05735 10.9091C6.05735 10.03 5.25781 9.13635 4.04003 9.13635C2.82224 9.13635 2.02271 10.03 2.02271 10.9091C2.02271 11.7882 2.82224 12.6818 4.04003 12.6818ZM4.04003 14.1818C5.98259 14.1818 7.55735 12.7166 7.55735 10.9091C7.55735 9.10161 5.98259 7.63635 4.04003 7.63635C2.09746 7.63635 0.522705 9.10161 0.522705 10.9091C0.522705 12.7166 2.09746 14.1818 4.04003 14.1818Z" fill="#FF8142"/>
<path d="M25.144 10.909C25.144 12.7165 23.5693 14.1817 21.6267 14.1817C19.6841 14.1817 18.1094 12.7165 18.1094 10.909C18.1094 9.10149 19.6841 7.63623 21.6267 7.63623C23.5693 7.63623 25.144 9.10149 25.144 10.909Z" fill="#F9FAFB"/>
<path fill-rule="evenodd" clip-rule="evenodd" d="M21.6267 12.6817C22.8445 12.6817 23.644 11.7881 23.644 10.909C23.644 10.0299 22.8445 9.13623 21.6267 9.13623C20.4089 9.13623 19.6094 10.0299 19.6094 10.909C19.6094 11.7881 20.4089 12.6817 21.6267 12.6817ZM21.6267 14.1817C23.5693 14.1817 25.144 12.7165 25.144 10.909C25.144 9.10149 23.5693 7.63623 21.6267 7.63623C19.6841 7.63623 18.1094 9.10149 18.1094 10.909C18.1094 12.7165 19.6841 14.1817 21.6267 14.1817Z" fill="#FF8142"/>
<path d="M13.4195 10.909C13.4195 12.7165 11.8448 14.1817 9.90221 14.1817C7.95965 14.1817 6.38489 12.7165 6.38489 10.909C6.38489 9.10149 7.95965 7.63623 9.90221 7.63623C11.8448 7.63623 13.4195 9.10149 13.4195 10.909Z" fill="#F9FAFB"/>
<path fill-rule="evenodd" clip-rule="evenodd" d="M9.90221 12.6817C11.12 12.6817 11.9195 11.7881 11.9195 10.909C11.9195 10.0299 11.12 9.13623 9.90221 9.13623C8.68443 9.13623 7.88489 10.0299 7.88489 10.909C7.88489 11.7881 8.68443 12.6817 9.90221 12.6817ZM9.90221 14.1817C11.8448 14.1817 13.4195 12.7165 13.4195 10.909C13.4195 9.10149 11.8448 7.63623 9.90221 7.63623C7.95965 7.63623 6.38489 9.10149 6.38489 10.909C6.38489 12.7165 7.95965 14.1817 9.90221 14.1817Z" fill="#FF8142"/>
<path d="M19.2818 10.909C19.2818 12.7165 17.7071 14.1817 15.7645 14.1817C13.822 14.1817 12.2472 12.7165 12.2472 10.909C12.2472 9.10149 13.822 7.63623 15.7645 7.63623C17.7071 7.63623 19.2818 9.10149 19.2818 10.909Z" fill="#F9FAFB"/>
<path fill-rule="evenodd" clip-rule="evenodd" d="M15.7645 12.6817C16.9823 12.6817 17.7818 11.7881 17.7818 10.909C17.7818 10.0299 16.9823 9.13623 15.7645 9.13623C14.5467 9.13623 13.7472 10.0299 13.7472 10.909C13.7472 11.7881 14.5467 12.6817 15.7645 12.6817ZM15.7645 14.1817C17.7071 14.1817 19.2818 12.7165 19.2818 10.909C19.2818 9.10149 17.7071 7.63623 15.7645 7.63623C13.822 7.63623 12.2472 9.10149 12.2472 10.909C12.2472 12.7165 13.822 14.1817 15.7645 14.1817Z" fill="#FF8142"/>
<path d="M2.28137 4.36365H22.7991L25.144 10.9091H0.522705L2.28137 4.36365Z" fill="#F9FAFB"/>
<path fill-rule="evenodd" clip-rule="evenodd" d="M3.43154 5.86365L2.47893 9.40913H23.0133L21.7431 5.86365H3.43154ZM22.7991 4.36365H2.28137L0.522705 10.9091H25.144L22.7991 4.36365Z" fill="#FF8142"/>
<path d="M2.16418 2C2.16418 0.89543 3.05962 0 4.16418 0H21.0336C22.1382 0 23.0336 0.89543 23.0336 2V5.45457H2.16418V2Z" fill="#F9FAFB"/>
<path fill-rule="evenodd" clip-rule="evenodd" d="M21.0336 2.5H4.16418C3.88804 2.5 3.66418 2.72386 3.66418 3V3.97729H21.5336V3C21.5336 2.72386 21.3098 2.5 21.0336 2.5ZM4.16418 1C3.05962 1 2.16418 1.89543 2.16418 3V5.5H23.0336V3C23.0336 1.89543 22.1382 1 21.0336 1H4.16418Z" fill="#FF8142"/>
<path fill-rule="evenodd" clip-rule="evenodd" d="M6.22238 9.78806L7.39482 4.33348L8.86951 4.60791L7.69707 10.0625L6.22238 9.78806Z" fill="#FF8142"/>
<path fill-rule="evenodd" clip-rule="evenodd" d="M12.0834 9.8181V4.36353H13.5834V9.8181H12.0834Z" fill="#FF8142"/>
<path fill-rule="evenodd" clip-rule="evenodd" d="M16.6657 4.70519L18.1432 4.44453L19.3157 9.89911L19.2129 9.91822L19.3185 10.4583L17.8381 10.7052L16.6657 4.70519Z" fill="#FF8142"/>
<path d="M8.52977 19.7388C9.03728 19.7388 9.44538 19.5635 9.76453 19.2082L9.35643 18.7603C9.14715 18.9696 8.89078 19.1157 8.55593 19.1157C7.94378 19.1157 7.54614 18.6434 7.54614 17.8597C7.54614 17.0856 7.98563 16.6183 8.57162 16.6183C8.86462 16.6183 9.0896 16.7448 9.28318 16.9201L9.69128 16.4625C9.44014 16.2142 9.0582 16 8.55593 16C7.57753 16 6.7561 16.6962 6.7561 17.884C6.7561 19.0865 7.54614 19.7388 8.52977 19.7388Z" fill="white"/>
<path d="M12.1221 18.7457L12.3942 19.6706H13.2051L11.9599 16.0682H11.0495L9.80953 19.6706H10.5943L10.8664 18.7457H12.1221ZM11.9547 18.1858H11.0338L11.1489 17.7915C11.2693 17.4167 11.3791 17.0077 11.4786 16.6134H11.4995C11.6198 17.0029 11.7192 17.4167 11.8396 17.7915L11.9547 18.1858Z" fill="white"/>
<path d="M13.5766 16.0682V19.6706H14.3509V18.2102H15.727V17.6065H14.3509V16.6669H15.9624V16.0682H13.5766Z" fill="white"/>
<path d="M16.5554 16.0682V19.6706H18.9883V19.067H17.3297V18.1031H18.6901V17.4994H17.3297V16.6669H18.9307V16.0682H16.5554Z" fill="white"/>
</svg>
