<svg width="132" height="23" viewBox="0 0 132 23" fill="none" xmlns="http://www.w3.org/2000/svg">
<path d="M0.97275 0.199999H13.4528L13.6927 4.952H13.2608C12.5888 3.336 11.8848 2.232 11.1488 1.64C10.4128 1.032 9.33275 0.727999 7.90875 0.727999H7.06875V8.144H7.88475C8.63675 8.144 9.26875 7.864 9.78075 7.304C10.2928 6.728 10.6528 5.96 10.8608 5H11.2208V12.104H10.8128C10.5248 10.904 10.1328 10.048 9.63675 9.536C9.15675 9.024 8.49275 8.768 7.64475 8.768H7.06875V16.472H7.98075C9.45275 16.472 10.7008 16.032 11.7248 15.152C12.7648 14.272 13.4768 13.144 13.8608 11.768H14.3408L14.1488 17H0.97275V16.472H2.38875V0.727999H0.97275V0.199999ZM15.8857 17.24V12.944H16.1738C16.5898 14.336 17.1498 15.312 17.8538 15.872C18.5578 16.432 19.4378 16.712 20.4938 16.712C22.1258 16.712 22.9418 16.192 22.9418 15.152C22.9418 14.704 22.7418 14.368 22.3418 14.144C21.7178 13.792 20.9178 13.52 19.9418 13.328C18.8538 13.04 17.9418 12.656 17.2058 12.176C16.3258 11.6 15.8857 10.688 15.8857 9.44C15.8857 8.192 16.2697 7.2 17.0378 6.464C17.8058 5.712 18.8298 5.336 20.1098 5.336C20.8938 5.336 21.7018 5.52 22.5338 5.888C22.8378 6.016 23.0698 6.08 23.2298 6.08C23.3898 6.08 23.5258 6.024 23.6378 5.912C23.7498 5.8 23.8858 5.592 24.0458 5.288H24.3098V8.96H24.0218C23.2058 6.88 21.9418 5.84 20.2298 5.84C19.4778 5.84 18.9178 5.976 18.5498 6.248C18.1818 6.504 17.9978 6.832 17.9978 7.232C17.9978 7.472 18.0538 7.664 18.1658 7.808C18.2778 7.936 18.3658 8.032 18.4298 8.096C18.4938 8.16 18.5978 8.232 18.7418 8.312C18.8858 8.376 19.0058 8.432 19.1018 8.48C19.1978 8.512 19.3418 8.56 19.5338 8.624C19.7418 8.688 19.8938 8.728 19.9898 8.744C21.0778 9.016 21.8618 9.256 22.3418 9.464C22.8218 9.656 23.2778 9.896 23.7098 10.184C24.5898 10.792 25.0298 11.776 25.0298 13.136C25.0298 14.48 24.6298 15.504 23.8298 16.208C23.0298 16.896 21.9338 17.24 20.5418 17.24C19.5498 17.24 18.5898 17.008 17.6618 16.544C17.4698 16.416 17.3178 16.352 17.2058 16.352C16.8538 16.352 16.5098 16.648 16.1738 17.24H15.8857ZM32.46 5.768C31.756 5.768 31.252 6.152 30.948 6.92C30.644 7.688 30.492 8.96 30.492 10.736V11.984C30.492 13.568 30.668 14.704 31.02 15.392C31.372 16.08 32.02 16.424 32.964 16.424C33.908 16.424 34.66 16.104 35.22 15.464C35.78 14.824 36.14 14.096 36.3 13.28L36.732 13.328C36.428 14.704 35.868 15.696 35.052 16.304C34.22 16.928 33.076 17.24 31.62 17.24C29.764 17.24 28.34 16.744 27.348 15.752C26.356 14.744 25.86 13.28 25.86 11.36C25.86 9.424 26.42 7.936 27.54 6.896C28.676 5.856 30.252 5.336 32.268 5.336C33.692 5.336 34.78 5.616 35.532 6.176C36.284 6.72 36.66 7.408 36.66 8.24C36.66 9.072 36.476 9.68 36.108 10.064C35.756 10.448 35.26 10.64 34.62 10.64C33.996 10.64 33.492 10.472 33.108 10.136C32.724 9.8 32.532 9.304 32.532 8.648C32.532 8.36 32.572 8.072 32.652 7.784H33.444C33.556 7.464 33.612 7.176 33.612 6.92C33.612 6.152 33.228 5.768 32.46 5.768ZM43.1016 11.36H43.7976V9.512C43.7976 7.992 43.7096 6.976 43.5336 6.464C43.3736 5.936 43.0536 5.672 42.5736 5.672C42.2856 5.672 42.0216 5.752 41.7816 5.912C41.5576 6.056 41.4456 6.264 41.4456 6.536C41.4456 6.792 41.4936 7.056 41.5896 7.328H42.1896C42.3176 7.664 42.3816 8.072 42.3816 8.552C42.3816 9.016 42.1816 9.424 41.7816 9.776C41.3816 10.112 40.8776 10.28 40.2696 10.28C38.8936 10.28 38.2056 9.616 38.2056 8.288C38.2056 6.32 39.8776 5.336 43.2216 5.336C45.1256 5.336 46.4376 5.664 47.1576 6.32C47.8936 6.96 48.2616 8.144 48.2616 9.872V14.744C48.2616 15.576 48.4936 15.992 48.9576 15.992C49.5016 15.992 49.8216 15.168 49.9176 13.52L50.2776 13.544C50.2136 14.952 49.9496 15.92 49.4856 16.448C49.0216 16.976 48.2616 17.24 47.2056 17.24C45.2856 17.24 44.1816 16.648 43.8936 15.464C43.6856 16.072 43.3736 16.52 42.9576 16.808C42.5416 17.096 41.9336 17.24 41.1336 17.24C38.7656 17.24 37.5816 16.272 37.5816 14.336C37.5816 13.2 38.0296 12.424 38.9256 12.008C39.8376 11.576 41.2296 11.36 43.1016 11.36ZM42.1416 14.312C42.1416 15.144 42.1816 15.68 42.2616 15.92C42.3576 16.16 42.5256 16.28 42.7656 16.28C43.0216 16.28 43.2536 16.08 43.4616 15.68C43.6856 15.264 43.7976 14.696 43.7976 13.976V11.744H43.6296C42.6376 11.744 42.1416 12.472 42.1416 13.928V14.312ZM59.0391 10.544C59.0391 8.896 58.9591 7.792 58.7991 7.232C58.6391 6.656 58.3271 6.368 57.8631 6.368C57.3991 6.368 56.9831 6.672 56.6151 7.28C56.2471 7.872 56.0631 8.672 56.0631 9.68V14.072C56.0631 14.76 56.1991 15.344 56.4711 15.824C56.7431 16.304 57.1431 16.544 57.6711 16.544C58.1991 16.544 58.5591 16.192 58.7511 15.488C58.9431 14.784 59.0391 13.552 59.0391 11.792V10.544ZM56.0151 5.576V7.472C56.6391 6.048 57.7431 5.336 59.3271 5.336C60.7031 5.336 61.7671 5.832 62.5191 6.824C63.2871 7.816 63.6711 9.32 63.6711 11.336C63.6711 13.352 63.2551 14.84 62.4231 15.8C61.6071 16.76 60.3751 17.24 58.7271 17.24C57.9591 17.24 57.3831 17.144 56.9991 16.952C56.6151 16.76 56.3031 16.464 56.0631 16.064V22.28H59.1591V22.712H50.2791V22.28H51.5991V6.008H50.3271V5.576H56.0151ZM70.7004 17.24C68.6364 17.24 67.0844 16.712 66.0444 15.656C65.0204 14.584 64.5084 13.104 64.5084 11.216C64.5084 9.312 65.0844 7.856 66.2364 6.848C67.4044 5.84 68.8844 5.336 70.6764 5.336C74.3084 5.336 76.0524 7.16 75.9084 10.808H69.1404V11.744C69.1404 13.312 69.3404 14.496 69.7404 15.296C70.1404 16.096 70.8364 16.496 71.8284 16.496C73.6844 16.496 74.9004 15.504 75.4764 13.52L75.9084 13.592C75.6044 14.744 75.0524 15.64 74.2524 16.28C73.4684 16.92 72.2844 17.24 70.7004 17.24ZM69.1644 10.328H71.6364V9.152C71.6364 7.856 71.5564 6.976 71.3964 6.512C71.2524 6.032 70.9484 5.792 70.4844 5.792C70.0364 5.792 69.7004 6.048 69.4764 6.56C69.2684 7.056 69.1644 7.92 69.1644 9.152V10.328ZM94.9959 0.655999V17H91.6359L83.4039 1.472V16.544H84.7239V17H81.4359V16.544H82.7559V0.655999H81.4359V0.199999H88.0599L94.3479 12.248V0.655999H93.0279V0.199999H96.3159V0.655999H94.9959ZM104.672 12.272V10.232C104.672 8.68 104.584 7.552 104.408 6.848C104.248 6.128 103.864 5.768 103.256 5.768C102.904 5.768 102.616 5.872 102.392 6.08C102.184 6.272 102.032 6.6 101.936 7.064C101.792 7.784 101.72 8.88 101.72 10.352V12.224C101.72 13.968 101.768 15.016 101.864 15.368C101.976 15.72 102.088 16.008 102.2 16.232C102.376 16.616 102.72 16.808 103.232 16.808C103.856 16.808 104.264 16.448 104.456 15.728C104.6 15.216 104.672 14.064 104.672 12.272ZM103.184 17.24C101.184 17.24 99.6717 16.728 98.6477 15.704C97.6237 14.68 97.1117 13.216 97.1117 11.312C97.1117 9.392 97.6557 7.92 98.7437 6.896C99.8477 5.856 101.392 5.336 103.376 5.336C105.36 5.336 106.84 5.816 107.816 6.776C108.792 7.72 109.28 9.168 109.28 11.12C109.28 15.2 107.248 17.24 103.184 17.24ZM111.151 13.568V6.008H109.831V5.576H111.151V2.48L115.615 1.376V5.576H118.735V6.008H115.615V14.096C115.615 14.848 115.687 15.4 115.831 15.752C115.991 16.104 116.311 16.28 116.791 16.28C117.271 16.28 117.687 16.04 118.039 15.56C118.407 15.08 118.647 14.424 118.759 13.592L119.167 13.64C119.039 14.744 118.687 15.624 118.111 16.28C117.535 16.92 116.583 17.24 115.255 17.24C113.927 17.24 112.911 16.976 112.207 16.448C111.503 15.92 111.151 14.96 111.151 13.568ZM125.708 17.24C123.644 17.24 122.092 16.712 121.052 15.656C120.028 14.584 119.516 13.104 119.516 11.216C119.516 9.312 120.092 7.856 121.244 6.848C122.412 5.84 123.892 5.336 125.684 5.336C129.316 5.336 131.06 7.16 130.916 10.808H124.148V11.744C124.148 13.312 124.348 14.496 124.748 15.296C125.148 16.096 125.844 16.496 126.836 16.496C128.692 16.496 129.908 15.504 130.484 13.52L130.916 13.592C130.612 14.744 130.06 15.64 129.26 16.28C128.476 16.92 127.292 17.24 125.708 17.24ZM124.172 10.328H126.644V9.152C126.644 7.856 126.564 6.976 126.404 6.512C126.26 6.032 125.956 5.792 125.492 5.792C125.044 5.792 124.708 6.048 124.484 6.56C124.276 7.056 124.172 7.92 124.172 9.152V10.328Z" fill="black"/>
</svg>
