<svg width="25" height="25" viewBox="0 0 25 25" fill="none" xmlns="http://www.w3.org/2000/svg">
<path fill-rule="evenodd" clip-rule="evenodd" d="M2.83301 11.1699C2.83301 6.38166 6.67335 2.5 11.4106 2.5C13.6856 2.5 15.8673 3.41344 17.476 5.03936C19.0846 6.66529 19.9883 8.87052 19.9883 11.1699C19.9883 15.9582 16.1479 19.8399 11.4106 19.8399C6.67335 19.8399 2.83301 15.9582 2.83301 11.1699ZM19.8464 18.1543L22.401 20.2164H22.4454C22.9622 20.7388 22.9622 21.5858 22.4454 22.1082C21.9285 22.6306 21.0906 22.6306 20.5737 22.1082L18.4537 19.6785C18.2533 19.4766 18.1406 19.2024 18.1406 18.9164C18.1406 18.6304 18.2533 18.3562 18.4537 18.1543C18.8402 17.7704 19.4598 17.7704 19.8464 18.1543Z" fill="#FF8142"/>
</svg>
