<svg width="20" height="20" viewBox="0 0 20 20" fill="none" xmlns="http://www.w3.org/2000/svg">
<path d="M2.5 2.5L17.5 17.5" stroke="#9CA3AF" stroke-width="1.5" stroke-linecap="round" stroke-linejoin="round"/>
<path d="M8.81973 8.82251C8.50699 9.13502 8.33121 9.55897 8.33105 10.0011C8.3309 10.4432 8.50638 10.8673 8.81889 11.18C9.13141 11.4927 9.55535 11.6685 9.99747 11.6687C10.4396 11.6688 10.8637 11.4934 11.1764 11.1808" stroke="#9CA3AF" stroke-width="1.5" stroke-linecap="round" stroke-linejoin="round"/>
<path d="M7.80234 4.47084C8.51685 4.26644 9.25667 4.16404 9.99984 4.16668C13.3332 4.16668 16.1107 6.11084 18.3332 10C17.6848 11.1342 16.9898 12.1033 16.2473 12.9067M14.464 14.4575C13.1048 15.3742 11.6182 15.8333 9.99984 15.8333C6.6665 15.8333 3.889 13.8892 1.6665 10C2.80734 8.00418 4.094 6.52084 5.5265 5.54918" stroke="#9CA3AF" stroke-width="1.5" stroke-linecap="round" stroke-linejoin="round"/>
</svg>
