<svg width="24" height="24" viewBox="0 0 24 24" fill="none" xmlns="http://www.w3.org/2000/svg">
<rect width="24" height="24" fill="#F6F4F0"/>
<path d="M2 7H22" stroke="black" stroke-width="2" stroke-linecap="round"/>
<path d="M2 17H22" stroke="black" stroke-width="2" stroke-linecap="round"/>
<path d="M18.5 6.5C18.5 7.60457 17.6046 8.5 16.5 8.5C15.3954 8.5 14.5 7.60457 14.5 6.5C14.5 5.39543 15.3954 4.5 16.5 4.5C17.6046 4.5 18.5 5.39543 18.5 6.5Z" fill="black" stroke="black"/>
<path d="M9.5 17C9.5 18.1046 8.60457 19 7.5 19C6.39543 19 5.5 18.1046 5.5 17C5.5 15.8954 6.39543 15 7.5 15C8.60457 15 9.5 15.8954 9.5 17Z" fill="black" stroke="black"/>
</svg>
