<svg width="22" height="22" viewBox="0 0 22 22" fill="none" xmlns="http://www.w3.org/2000/svg">
<path d="M11.2498 17.7242C11.3415 17.6794 11.4185 17.6093 11.4718 17.5222C11.4198 17.6104 11.3424 17.6808 11.2498 17.7242V17.7242Z" fill="#F3F4F6"/>
<path d="M17.6326 11.4992C17.9953 11.1727 18.0246 10.8389 17.988 10.6211C17.8722 9.93912 16.9651 9.54712 16.8562 9.50368L16.8127 9.48196C16.7979 9.48196 15.3323 9.06825 14.135 7.14517L14.084 7.05829C13.0538 5.40343 11.6386 3.12524 9.19317 3.12524C8.50364 3.12524 7.77102 3.31383 7.0091 3.67686C3.21396 5.48342 4.08449 10.7879 4.51992 12.1159C4.96259 13.4367 5.94965 15.8738 7.59692 17.3987C8.41676 18.1534 8.75049 18.3058 9.00458 18.3058C9.07397 18.3065 9.14272 18.2926 9.20643 18.2651C9.27014 18.2376 9.32739 18.1971 9.37451 18.1462C9.56344 17.9431 9.53414 17.6528 9.51242 17.3987V17.377C9.61969 17.4571 9.71929 17.547 9.80995 17.6456C10.0568 17.8993 10.5067 18.1534 10.9566 18.1534C11.45 18.1534 11.9726 17.8414 11.9726 16.9488V16.8109C11.9726 16.6151 11.9726 16.4044 11.9799 16.2521C12.0668 16.3031 12.2119 16.3972 12.4222 16.5423C12.749 16.7675 13.061 16.8837 13.3513 16.8837C13.4955 16.8849 13.6379 16.8527 13.7676 16.7897C13.8973 16.7268 14.0106 16.6347 14.0988 16.5206C14.367 16.1797 14.447 15.628 14.3018 15.055C14.2001 14.6413 14.1857 14.4234 14.1857 14.3076C14.2693 14.3466 14.3495 14.3928 14.4253 14.4455C14.7735 14.6851 15.1582 14.8158 15.5064 14.8158C15.8764 14.8158 16.1811 14.6706 16.3701 14.3948C16.6459 13.9883 16.6311 13.3716 16.3263 12.5734C16.1594 12.138 16.1449 11.9639 16.1449 11.8987C16.2177 11.8843 16.3553 11.8767 16.4497 11.8694C16.7907 11.8619 17.2551 11.8401 17.6326 11.4992ZM9.46174 7.73299C9.54862 6.91314 10.1075 6.42668 10.5863 6.38324C10.9349 6.35428 11.2031 6.52839 11.2976 6.85488C11.53 7.63128 11.109 8.40045 10.2978 8.66901C10.2 8.70467 10.0971 8.72435 9.99301 8.72728C9.87501 8.72887 9.75993 8.69047 9.66652 8.61833C9.38899 8.40045 9.44002 7.93605 9.46174 7.73299V7.73299ZM7.12666 8.22634C7.23009 8.39321 7.46074 8.79244 7.30835 9.11169C7.22113 9.28407 7.03254 9.39474 6.75674 9.42197C6.69649 9.428 6.63593 9.43042 6.57539 9.42921C5.81347 9.42921 5.18945 8.92138 5.08774 8.18807C5.03706 7.85434 5.21117 7.57853 5.53042 7.46407C5.98757 7.30445 6.70606 7.5151 7.11942 8.21876L7.12666 8.22634ZM11.5462 10.6938C11.5457 10.7237 11.5383 10.7531 11.5244 10.7796C11.5105 10.806 11.4905 10.8289 11.4662 10.8462C11.4412 10.8609 11.4133 10.8698 11.3844 10.8723C11.3555 10.8748 11.3265 10.8708 11.2993 10.8607L10.4795 10.5269L10.2254 11.3178C10.2025 11.3697 10.161 11.4111 10.1092 11.434C10.0825 11.4417 10.0545 11.4437 10.0271 11.4399C9.99956 11.4361 9.97317 11.4265 9.94957 11.4119L9.14421 10.8751L8.63603 11.6371C8.6056 11.6759 8.56164 11.7017 8.51295 11.7095C8.48886 11.7146 8.46392 11.7141 8.44003 11.7081C8.41613 11.7021 8.39391 11.6908 8.37505 11.675L7.60588 11.0872L6.88188 11.6967C6.84962 11.7247 6.80841 11.7402 6.7657 11.7405C6.75349 11.7387 6.7414 11.7362 6.7295 11.7329C6.70238 11.7297 6.67662 11.7193 6.65491 11.7027C6.63319 11.6862 6.61633 11.6641 6.60607 11.6388L6.08031 10.6428C6.06826 10.622 6.06057 10.599 6.0577 10.5751C6.05483 10.5512 6.05684 10.527 6.06361 10.504C6.07038 10.4809 6.08177 10.4595 6.09709 10.441C6.11241 10.4225 6.13133 10.4072 6.15271 10.3963C6.17406 10.3849 6.19749 10.3779 6.2216 10.3757C6.24571 10.3736 6.27 10.3763 6.29304 10.3837C6.31607 10.3911 6.33738 10.4031 6.35568 10.419C6.37398 10.4348 6.3889 10.4542 6.39956 10.4759L6.81328 11.274L7.48074 10.7152C7.51273 10.6876 7.55323 10.6718 7.59547 10.6705C7.6377 10.6692 7.67911 10.6824 7.71276 10.7079L8.43848 11.2737L8.94666 10.5266C8.95896 10.5064 8.97526 10.489 8.99456 10.4755C9.01386 10.4619 9.03574 10.4524 9.05885 10.4476C9.08196 10.4428 9.1058 10.4428 9.12891 10.4477C9.15201 10.4525 9.17388 10.462 9.19317 10.4756L9.94785 10.9765L10.195 10.2294C10.2022 10.2056 10.2142 10.1836 10.2304 10.1649C10.2467 10.1461 10.2667 10.131 10.2892 10.1205C10.3119 10.1097 10.3366 10.1042 10.3617 10.1042C10.3868 10.1042 10.4116 10.1097 10.4343 10.1205L11.1818 10.4252V9.44542C11.1838 9.39865 11.2038 9.35447 11.2376 9.32209C11.2714 9.28971 11.3165 9.27164 11.3633 9.27164C11.4101 9.27164 11.4551 9.28971 11.4889 9.32209C11.5227 9.35447 11.5427 9.39865 11.5448 9.44542L11.5462 10.6938Z" fill="#111827"/>
</svg>
