<svg width="64" height="64" viewBox="0 0 64 64" fill="none" xmlns="http://www.w3.org/2000/svg">
<ellipse cx="32.2501" cy="32" rx="31.69" ry="32" fill="#D1D5DB"/>
<path d="M40.04 26.8201L34.28 22.7901C32.71 21.6901 30.3 21.7501 28.79 22.9201L23.78 26.8301C22.78 27.6101 21.99 29.2101 21.99 30.4701V37.3701C21.99 39.9201 24.06 42.0001 26.61 42.0001H37.39C39.94 42.0001 42.01 39.9301 42.01 37.3801V30.6001C42.01 29.2501 41.14 27.5901 40.04 26.8201ZM32.75 38.0001C32.75 38.4101 32.41 38.7501 32 38.7501C31.59 38.7501 31.25 38.4101 31.25 38.0001V35.0001C31.25 34.5901 31.59 34.2501 32 34.2501C32.41 34.2501 32.75 34.5901 32.75 35.0001V38.0001Z" fill="#F3F4F6"/>
</svg>
