<svg width="25" height="26" viewBox="0 0 25 26" fill="none" xmlns="http://www.w3.org/2000/svg">
<path d="M12.4893 16.166C12.9512 16.166 13.3486 15.7793 13.3486 15.3281V4.2959L13.2842 2.68457L14.0039 3.44727L15.6367 5.1875C15.7871 5.35938 16.002 5.44531 16.2168 5.44531C16.6572 5.44531 17.001 5.12305 17.001 4.68262C17.001 4.45703 16.9043 4.28516 16.7432 4.12402L13.1123 0.62207C12.8975 0.407227 12.7148 0.332031 12.4893 0.332031C12.2744 0.332031 12.0918 0.407227 11.8662 0.62207L8.23535 4.12402C8.07422 4.28516 7.98828 4.45703 7.98828 4.68262C7.98828 5.12305 8.31055 5.44531 8.76172 5.44531C8.96582 5.44531 9.20215 5.35938 9.35254 5.1875L10.9746 3.44727L11.7051 2.68457L11.6406 4.2959V15.3281C11.6406 15.7793 12.0273 16.166 12.4893 16.166ZM6.33398 24.5771H18.6553C20.9004 24.5771 22.0283 23.46 22.0283 21.2471V10.5264C22.0283 8.31348 20.9004 7.19629 18.6553 7.19629H15.6582V8.92578H18.623C19.6865 8.92578 20.2988 9.50586 20.2988 10.623V21.1504C20.2988 22.2676 19.6865 22.8477 18.623 22.8477H6.35547C5.28125 22.8477 4.69043 22.2676 4.69043 21.1504V10.623C4.69043 9.50586 5.28125 8.92578 6.35547 8.92578H9.33105V7.19629H6.33398C4.08887 7.19629 2.96094 8.31348 2.96094 10.5264V21.2471C2.96094 23.46 4.08887 24.5771 6.33398 24.5771Z" fill="#0A7AFF"/>
</svg>
