<svg width="25" height="25" viewBox="0 0 25 25" fill="none" xmlns="http://www.w3.org/2000/svg">
<path d="M20.79 7.31994L15.03 3.28994C13.46 2.18994 11.05 2.24994 9.53999 3.41994L4.52999 7.32994C3.52999 8.10994 2.73999 9.70994 2.73999 10.9699V17.8699C2.73999 20.4199 4.80999 22.4999 7.35999 22.4999H18.14C20.69 22.4999 22.76 20.4299 22.76 17.8799V11.0999C22.76 9.74994 21.89 8.08994 20.79 7.31994ZM13.5 18.4999C13.5 18.9099 13.16 19.2499 12.75 19.2499C12.34 19.2499 12 18.9099 12 18.4999V15.4999C12 15.0899 12.34 14.7499 12.75 14.7499C13.16 14.7499 13.5 15.0899 13.5 15.4999V18.4999Z" fill="#FF8142"/>
</svg>
