<svg width="14" height="14" viewBox="0 0 14 14" fill="none" xmlns="http://www.w3.org/2000/svg">
<path d="M9.91663 6.41675H4.08329C3.43896 6.41675 2.91663 6.93908 2.91663 7.58341V11.0834C2.91663 11.7277 3.43896 12.2501 4.08329 12.2501H9.91663C10.561 12.2501 11.0833 11.7277 11.0833 11.0834V7.58341C11.0833 6.93908 10.561 6.41675 9.91663 6.41675Z" fill="#FDE047" stroke="#4B5563" stroke-linecap="round" stroke-linejoin="round"/>
<path d="M6.99996 9.91667C7.32213 9.91667 7.58329 9.6555 7.58329 9.33333C7.58329 9.01117 7.32213 8.75 6.99996 8.75C6.67779 8.75 6.41663 9.01117 6.41663 9.33333C6.41663 9.6555 6.67779 9.91667 6.99996 9.91667Z" stroke="#4B5563" stroke-linecap="round" stroke-linejoin="round"/>
<path d="M4.66663 6.41667V4.08333C4.66663 3.46449 4.91246 2.871 5.35004 2.43342C5.78763 1.99583 6.38112 1.75 6.99996 1.75C7.6188 1.75 8.21229 1.99583 8.64988 2.43342C9.08746 2.871 9.33329 3.46449 9.33329 4.08333V6.41667" stroke="#4B5563" stroke-linecap="round" stroke-linejoin="round"/>
</svg>
