<svg width="16" height="16" viewBox="0 0 16 16" fill="none" xmlns="http://www.w3.org/2000/svg">
<path d="M11.2644 7.33325H4.63822C3.90631 7.33325 3.31299 7.93021 3.31299 8.66659V12.6666C3.31299 13.403 3.90631 13.9999 4.63822 13.9999H11.2644C11.9963 13.9999 12.5896 13.403 12.5896 12.6666V8.66659C12.5896 7.93021 11.9963 7.33325 11.2644 7.33325Z" stroke="#111827" stroke-width="1.5" stroke-linecap="round" stroke-linejoin="round"/>
<path d="M7.95119 11.3333C8.31714 11.3333 8.6138 11.0349 8.6138 10.6667C8.6138 10.2985 8.31714 10 7.95119 10C7.58524 10 7.28857 10.2985 7.28857 10.6667C7.28857 11.0349 7.58524 11.3333 7.95119 11.3333Z" stroke="#111827" stroke-width="2" stroke-linecap="round" stroke-linejoin="round"/>
<path d="M5.30078 7.33333V4.66667C5.30078 3.95942 5.58002 3.28115 6.07708 2.78105C6.57414 2.28095 7.24829 2 7.95124 2C8.65418 2 9.32834 2.28095 9.82539 2.78105C10.3224 3.28115 10.6017 3.95942 10.6017 4.66667V7.33333" stroke="#111827" stroke-width="1.5" stroke-linecap="round" stroke-linejoin="round"/>
</svg>
