<svg width="22" height="22" viewBox="0 0 22 22" fill="none" xmlns="http://www.w3.org/2000/svg">
<path d="M15.5833 10.0833H6.41659C5.40406 10.0833 4.58325 10.9041 4.58325 11.9166V17.4166C4.58325 18.4291 5.40406 19.2499 6.41659 19.2499H15.5833C16.5958 19.2499 17.4166 18.4291 17.4166 17.4166V11.9166C17.4166 10.9041 16.5958 10.0833 15.5833 10.0833Z" fill="#111111" stroke="#111827" stroke-width="1.5" stroke-linecap="round" stroke-linejoin="round"/>
<path d="M7.33325 10.0833V6.41667C7.33325 5.44421 7.71956 4.51157 8.40719 3.82394C9.09483 3.13631 10.0275 2.75 10.9999 2.75C11.9724 2.75 12.905 3.13631 13.5926 3.82394C14.2803 4.51157 14.6666 5.44421 14.6666 6.41667V10.0833" stroke="#111827" stroke-width="1.5" stroke-linecap="round" stroke-linejoin="round"/>
</svg>
