<svg xmlns="http://www.w3.org/2000/svg" width="70" height="71" viewBox="0 0 70 71" fill="none">
  <path d="M0 7.97911L9.21354 70.3612H63.4331L69.1016 30.103L52.9779 0L0 7.97911Z" fill="#FF8142"/>
  <path d="M57.8589 60.1229C56.1828 60.303 53.5222 60.6995 49.8771 61.3124C46.2699 61.869 41.9419 62.6151 36.893 63.5506C31.8912 64.4769 26.4465 65.514 20.5589 66.6619C20.2076 65.3614 19.6996 63.3826 19.0348 60.7254C18.408 58.012 17.6842 54.9263 16.8633 51.4684C16.0425 48.0106 15.1941 44.4114 14.3182 40.6709C13.4422 36.9304 12.6174 33.3267 11.8436 29.8596C11.0607 26.3455 10.3558 23.2316 9.729 20.5182C9.14928 17.7956 8.72627 15.7513 8.45996 14.3854C10.5324 13.9813 12.9109 13.5176 15.5957 12.9941C18.3183 12.4144 21.1587 11.8117 24.1168 11.1861C27.075 10.5605 30.0096 9.93944 32.9206 9.32299C35.8224 8.65944 38.5169 8.06077 41.0041 7.52696C43.5291 6.93688 45.6584 6.4484 47.3919 6.06152L49.1484 13.566L23.7609 17.6358C24.3027 20.4147 24.8537 23.2407 25.4139 26.1138C25.9648 28.9398 26.5302 31.7142 27.1099 34.4368L50.697 29.0314L51.9296 36.858L28.3514 40.4283C29.0505 43.7633 29.7174 46.9333 30.3523 49.9386C30.9871 52.9438 31.5903 55.6619 32.1621 58.0927L56.6538 52.4376L57.8589 60.1229Z" fill="white"/>
</svg>