<svg width="25" height="25" viewBox="0 0 25 25" fill="none" xmlns="http://www.w3.org/2000/svg">
<path d="M19.75 13C19.75 11.62 20.87 10.5 22.25 10.5V9.5C22.25 5.5 21.25 4.5 17.25 4.5H7.25C3.25 4.5 2.25 5.5 2.25 9.5V10C3.63 10 4.75 11.12 4.75 12.5C4.75 13.88 3.63 15 2.25 15V15.5C2.25 19.5 3.25 20.5 7.25 20.5H17.25C21.25 20.5 22.25 19.5 22.25 15.5C20.87 15.5 19.75 14.38 19.75 13Z" stroke="#9CA3AF" stroke-width="1.5" stroke-linecap="round" stroke-linejoin="round"/>
<path d="M10.25 4.5L10.25 20.5" stroke="#9CA3AF" stroke-width="1.5" stroke-linecap="round" stroke-linejoin="round" stroke-dasharray="5 5"/>
</svg>
